<?xml version="1.0" encoding="utf-8"?><svg xmlns="http://www.w3.org/2000/svg" viewBox="0 0 192.98 180.7"><defs><style>.cls-1{fill:#ff1623;}.cls-2{fill:#bf0618;}</style></defs><title>bubble_get_character</title><g id="Vrstva_2" data-name="Vrstva 2"><g id="Vrstva_1-2" data-name="Vrstva 1"><rect class="cls-1" x="18.54" width="174.44" height="154.86" rx="27.33"/><path class="cls-2" d="M165.65,150.49H45.87a27.34,27.34,0,0,1-27.33-27.33v4.37a27.34,27.34,0,0,0,27.33,27.33H165.65A27.33,27.33,0,0,0,193,127.53v-4.37A27.33,27.33,0,0,1,165.65,150.49Z"/><polygon class="cls-1" points="27.12 142.43 4.68 148.59 3.48 153.96 20.3 160.55 0 180.7 45.36 165.4 39.14 159.49 44.45 151.77 27.12 142.43"/><polygon class="cls-2" points="41.53 150.19 36.72 157.24 39.14 159.54 44.45 151.77 41.53 150.19"/><polygon class="cls-2" points="8.89 171.88 0 180.7 45.36 165.4 40.84 161.1 8.89 171.88"/><polygon class="cls-2" points="24.36 156.34 4.68 148.59 3.48 153.96 20.15 160.52 24.36 156.34"/></g></g></svg>
