<?xml version="1.0" encoding="utf-8"?>
<!-- Generator: Adobe Illustrator 23.0.1, SVG Export Plug-In . SVG Version: 6.00 Build 0)  -->
<svg version="1.1" id="Vrstva_1" xmlns="http://www.w3.org/2000/svg" xmlns:xlink="http://www.w3.org/1999/xlink" x="0px" y="0px"
	 viewBox="0 0 304 86.6" style="enable-background:new 0 0 304 86.6;" xml:space="preserve">
<style type="text/css">
	.st0{fill:#D3B93C;}
	.st1{fill:#9E8300;}
	.st2{fill:#FFE95A;}
	.st3{fill:#BDA200;}
	.st4{fill:#00C446;}
	.st5{fill:#00891D;}
	.st6{opacity:0.26;fill:#FFF2F7;}
	.st7{opacity:0.74;fill:#FFF2F7;}
	.st8{fill:#01FF62;}
	.st9{fill:#00AB2A;}
	.st10{fill:#BF7340;}
	.st11{fill:#935932;}
	.st12{fill:#FFAD75;}
	.st13{fill:#CE8757;}
	.st14{fill:#FFFFFF;}
	.st15{fill:#FFFD6D;}
	.st16{fill:#D8CE00;}
	.st17{opacity:0.32;fill:#FFFFFF;}
	.st18{fill:none;stroke:#F4FCFF;stroke-miterlimit:10;}
	.st19{opacity:0.23;fill:#F4FCFF;}
	.st20{fill:#6E0D7F;}
	.st21{fill:#8E7700;}
</style>
<g>
	<g>
		<g>
			<path class="st4" d="M17.6,86.1c-9.5,0-17.1-7.7-17.1-17.1V17.6c0-9.5,7.7-17.1,17.1-17.1h268.7c9.5,0,17.1,7.7,17.1,17.1v51.3
				c0,9.5-7.7,17.1-17.1,17.1H17.6z"/>
			<path d="M286.3,1c9.2,0,16.6,7.4,16.6,16.6v44v0.3v7c0,9.2-7.4,16.6-16.6,16.6H17.6C8.4,85.6,1,78.1,1,68.9v-7v-0.3v-44
				C1,8.4,8.4,1,17.6,1H286.3 M286.3,0H17.6C7.9,0,0,7.9,0,17.6v44v0.3v7c0,9.7,7.9,17.6,17.6,17.6h268.7c9.7,0,17.6-7.9,17.6-17.6
				v-7v-0.3v-44C304,7.9,296,0,286.3,0L286.3,0z"/>
		</g>
		<path class="st5" d="M286.3,78.5H17.6C8.4,78.5,1,71,1,61.8v6.7v0.3C1,78,8.4,85.5,17.6,85.5h268.7c9.2,0,16.6-7.4,16.6-16.6v-0.3
			v-6.7C303,71,295.5,78.5,286.3,78.5z"/>
	</g>
	<path class="st6" d="M287.3,9H18c-2.2,0-4-1.8-4-4v0c0-2.2,1.8-4,4-4l269.3,0c2.2,0,4,1.8,4,4v0C291.3,7.2,289.5,9,287.3,9z"/>
	<path class="st7" d="M153.6,9h-32.3c-2.2,0-4-1.8-4-4v0c0-2.2,1.8-4,4-4h32.3c2.2,0,4,1.8,4,4v0C157.6,7.2,155.8,9,153.6,9z"/>
	<path class="st7" d="M171.3,9h-2.2c-2.2,0-4-1.8-4-4v0c0-2.2,1.8-4,4-4h2.2c2.2,0,4,1.8,4,4v0C175.3,7.2,173.5,9,171.3,9z"/>
</g>
</svg>
