<?xml version="1.0" encoding="utf-8"?><svg xmlns="http://www.w3.org/2000/svg" viewBox="0 0 82.13 117.25"><defs><style>.cls-1{fill:#fff;}</style></defs><title>double_kill</title><g id="Vrstva_2" data-name="Vrstva 2"><g id="Vrstva_1-2" data-name="Vrstva 1"><path d="M34.37,49c.72-3.23.12-6.49-.48-9.67-1.15-6.07-2.6-12.08-3.82-18.14-.94-4.7-1.75-9.46-.57-14.23a10.29,10.29,0,0,1,1.95-4.19C34.74-1,39.1-.9,42.37,3c3,3.52,4.18,7.84,4.8,12.24C48.14,22.1,48.75,29,49.58,36c.22,1.84.68,3.66,1.05,5.58,10.3-5,13.86-4.39,17.16,2.54A8.29,8.29,0,0,0,69,44c4.8-1.17,8.28.32,10.67,4.69,3.64,6.63,3.1,13.25-.34,19.71a7.25,7.25,0,0,0-.85,5.21,23,23,0,0,1-5,20.28c-1.12,1.36-1.5,2.4-.32,4.08,2.15,3,1.58,6.26-1.52,9.38-5.56,5.58-12.5,8.36-20.17,9.54a25,25,0,0,1-13.58-1.28c-5.66-2.3-7.11-4.78-5.78-10.76a17.86,17.86,0,0,1-10.5-10.16,22.43,22.43,0,0,1-1.75-11.22,29.29,29.29,0,0,0-.29-6.93A85.68,85.68,0,0,0,17.27,65a122.37,122.37,0,0,0-5.14-14.18C9.31,44.38,6,38.15,3.11,31.71A38.9,38.9,0,0,1,.15,22c-.94-6.17,2.7-9.35,8.53-10.2,1.5-.22,3.5.88,4.82,1.94,3.15,2.51,4.78,6.18,6.21,9.82,2.79,7,5.55,14.1,9.74,20.47,1.21,1.85,2.66,3.55,4,5.31ZM56.93,98.18l.66.66a31.37,31.37,0,0,1-4,3.75A23.2,23.2,0,0,1,37.35,106c-2.53-.33-3.34.47-2.79,3,.62,2.87,2.91,4.06,5.4,4.69,9.84,2.47,18.8.32,26.88-5.6A17.48,17.48,0,0,0,70.45,104a5.87,5.87,0,0,0,1-2.9c.12-2-1.58-3-3.47-2.37-2.79.94-5.55,2.31-8.74.81,6.74-.23,11.14-4.05,14.21-9.38,3-5.17,4.48-10.76,2.36-16.87a10,10,0,0,0-1.1.4c-4.64,2.64-7.16,2.4-11.4-.86a3.37,3.37,0,0,0-2.52-.28c-1.81.45-3.49.85-5.32-.11a3.53,3.53,0,0,0-2.43.18c-3.64,1.29-4.63,4.39-5.19,7.86C49.59,81.8,52.3,81.9,53.54,85c-1.62-.64-2.76-1-3.79-1.51-1.83-1-3.14-.94-4.3,1.14a11.46,11.46,0,0,1-7.58,5.56,13.64,13.64,0,0,1-3.43-.06l-.14-.79c7.66-.7,10.51-6.09,12.44-12.37a8.84,8.84,0,0,0,.33-1c.36-2.08,1.81-3.2,3.47-4.27a89.42,89.42,0,0,0,8.54-6c3.58-3,4.45-9.74,2.06-13.69-1.47-2.43-3.09-2.76-5.4-1.1-1.48,1.07-2.86,2.29-4.41,3.23q-5.47,3.3-11.07,6.38c-4.83,2.66-8.9,6-11.5,11a15.71,15.71,0,0,1-2.51,3.31C20.5,81,22,92.85,27.1,98.16c6,6.19,16,7.71,23.89,3.61C53,100.71,55,99.38,56.93,98.18ZM32.09,51.55c-1.73-2.49-3.6-4.61-4.85-7.06C23.7,37.53,20.47,30.4,17,23.41a74.34,74.34,0,0,0-4.88-8.24,3.44,3.44,0,0,0-4.16-1.32C5.1,14.74,3,16.46,2.81,19.44c-.15,2.7-.17,5.72.85,8.13,2.55,6,5.79,11.67,8.63,17.53,3.88,8,7.9,15.92,8.36,25.08.08,1.78.92,3.53,1.6,5.93a32,32,0,0,0,2.61-3.42A32.77,32.77,0,0,1,38.33,59.61c3.2-1.75,6.23-3.82,9.36-5.71,1-.62,1.68-1.52,1-2.55a2.7,2.7,0,0,0-2.24-.91,87.28,87.28,0,0,0-10.92,2.49c-4,1.31-7.82,3.15-11.93,4.84C25.48,54.39,29,53.39,32.09,51.55Zm4.66-1.46c3.26-.53,6.42-1.09,9.59-1.56s3.34-.92,2.85-4.08c-1-6.52-2-13.05-2.73-19.6C45.79,19,45.26,13.09,43,7.55c-1.44-3.48-4.15-5.63-6.67-5.33s-4.58,2.65-4.77,6.65a58,58,0,0,0,.9,11.6c.85,5.41,2.25,10.73,3.08,16.13C36.17,41,36.33,45.38,36.75,50.09ZM79.13,52.8c-.95-2.86-2.43-6.21-6.63-7-3.1-.61-4.26.55-4.19,3.71.15,6.46.07,12.88-3.4,18.71C64,69.72,64.78,71,66,72.05a5.76,5.76,0,0,0,7.24,0C78.42,68.33,81.14,60.05,79.13,52.8ZM51.39,51.3c1.18-.92,2.07-1.72,3.07-2.37,3.34-2.18,6.33-1.65,8.4,1.42,3.32,4.94,2.17,13.34-2.37,17.21L57.68,70a5,5,0,0,0,5.9-4,113.35,113.35,0,0,0,2.78-15.3c.25-2.21-.57-4.64-1.3-6.84-.62-1.88-1.74-3.74-4.14-3.8A9.3,9.3,0,0,0,51.39,51.3Z"/><path class="cls-1" d="M56.93,98.18c-2,1.2-3.89,2.53-5.94,3.59-7.89,4.1-17.9,2.58-23.89-3.61C22,92.85,20.5,81,26.25,74.84a15.71,15.71,0,0,0,2.51-3.31c2.6-5,6.67-8.37,11.5-11q5.6-3.07,11.07-6.38c1.55-.94,2.93-2.16,4.41-3.23,2.31-1.66,3.93-1.33,5.4,1.1,2.39,3.95,1.52,10.73-2.06,13.69a89.42,89.42,0,0,1-8.54,6c-1.66,1.07-3.11,2.19-3.47,4.27a8.84,8.84,0,0,1-.33,1C44.81,83.2,42,88.59,34.3,89.29l.14.79a13.64,13.64,0,0,0,3.43.06,11.46,11.46,0,0,0,7.58-5.56c1.16-2.08,2.47-2.09,4.3-1.14,1,.54,2.17.87,3.79,1.51-1.24-3-3.95-3.15-5.69-4.47C48.41,77,49.4,73.91,53,72.62a3.53,3.53,0,0,1,2.43-.18c1.83,1,3.51.56,5.32.11a3.37,3.37,0,0,1,2.52.28c4.24,3.26,6.76,3.5,11.4.86a10,10,0,0,1,1.1-.4c2.12,6.11.62,11.7-2.36,16.87-3.07,5.33-7.47,9.15-14.21,9.38,3.19,1.5,5.95.13,8.74-.81,1.89-.63,3.59.4,3.47,2.37a5.87,5.87,0,0,1-1,2.9,17.48,17.48,0,0,1-3.61,4.08c-8.08,5.92-17,8.07-26.88,5.6-2.49-.63-4.78-1.82-5.4-4.69-.55-2.53.26-3.33,2.79-3a23.2,23.2,0,0,0,16.24-3.4,31.37,31.37,0,0,0,4-3.75Z"/><path class="cls-1" d="M32.09,51.55c-3.06,1.84-6.61,2.84-8.51,6.22,4.11-1.69,7.93-3.53,11.93-4.84a87.28,87.28,0,0,1,10.92-2.49,2.7,2.7,0,0,1,2.24.91c.7,1,0,1.93-1,2.55-3.13,1.89-6.16,4-9.36,5.71A32.77,32.77,0,0,0,24.86,72.69a32,32,0,0,1-2.61,3.42c-.68-2.4-1.52-4.15-1.6-5.93C20.19,61,16.17,53.09,12.29,45.1,9.45,39.24,6.21,33.55,3.66,27.57c-1-2.41-1-5.43-.85-8.13.17-3,2.29-4.7,5.12-5.59a3.44,3.44,0,0,1,4.16,1.32A74.34,74.34,0,0,1,17,23.41c3.5,7,6.73,14.12,10.27,21.08C28.49,46.94,30.36,49.06,32.09,51.55Z"/><path class="cls-1" d="M36.75,50.09c-.42-4.71-.58-9.14-1.25-13.49-.83-5.4-2.23-10.72-3.08-16.13a58,58,0,0,1-.9-11.6c.19-4,2.31-6.36,4.77-6.65S41.52,4.07,43,7.55c2.3,5.54,2.83,11.42,3.5,17.3.75,6.55,1.73,13.08,2.73,19.6.49,3.16.24,3.63-2.85,4.08S40,49.56,36.75,50.09Z"/><path class="cls-1" d="M79.13,52.8c2,7.25-.71,15.53-5.87,19.23a5.76,5.76,0,0,1-7.24,0c-1.24-1-2-2.33-1.11-3.87,3.47-5.83,3.55-12.25,3.4-18.71-.07-3.16,1.09-4.32,4.19-3.71C76.7,46.59,78.18,49.94,79.13,52.8Z"/><path class="cls-1" d="M51.39,51.3a9.3,9.3,0,0,1,9.53-11.25c2.4.06,3.52,1.92,4.14,3.8.73,2.2,1.55,4.63,1.3,6.84A113.35,113.35,0,0,1,63.58,66a5,5,0,0,1-5.9,4l2.81-2.44c4.54-3.87,5.69-12.27,2.37-17.21-2.07-3.07-5.06-3.6-8.4-1.42C53.46,49.58,52.57,50.38,51.39,51.3Z"/></g></g></svg>