<?xml version="1.0" encoding="utf-8"?><svg xmlns="http://www.w3.org/2000/svg" id="Vrstva_1" x="0" y="0" version="1.1" viewBox="0 0 40.31 40.31" xml:space="preserve"><style>.st43{fill:#3f00a0}.st46{fill:#000f59}</style><switch><g><path fill="#a100cb" d="M31.07 40.31H9.24c-5.1 0-9.24-4.14-9.24-9.24V9.24C0 4.14 4.14 0 9.24 0h21.82c5.1 0 9.24 4.14 9.24 9.24v21.82a9.231 9.231 0 0 1-9.23 9.25z"/><path fill="#ffc85a" d="M30.25 38.21h-20.2c-4.48 0-8.11-3.63-8.11-8.11V9.9c0-4.48 3.63-8.11 8.11-8.11h20.2c4.48 0 8.11 3.63 8.11 8.11v20.2c.01 4.48-3.63 8.11-8.11 8.11z"/><g><path d="M17.03 31.57c-2.87-.4-5.61-2.02-7.5-4.42-.95-1.2-1.66-2.6-2.09-4.1-.43-1.5-.56-3.08-.44-4.66.13-1.57.55-3.14 1.26-4.58.72-1.43 1.69-2.74 2.88-3.84 2.37-2.19 5.59-3.51 8.87-3.55a1.71 1.71 0 1 1 .04 3.42h-.04c-1.23-.01-2.46.19-3.62.59-1.17.4-2.26 1.02-3.22 1.82-.97.79-1.8 1.76-2.43 2.86-.65 1.09-1.09 2.3-1.3 3.57-.45 2.54.03 5.26 1.37 7.59 1.31 2.36 3.53 4.26 6.22 5.3zM23.29 8.14c2.86.4 5.6 2.03 7.49 4.42.94 1.2 1.66 2.6 2.09 4.1.43 1.5.56 3.08.44 4.65-.14 1.57-.56 3.14-1.27 4.57-.71 1.43-1.69 2.74-2.87 3.83-2.36 2.19-5.58 3.51-8.86 3.56-.95.01-1.72-.74-1.73-1.69-.01-.95.74-1.72 1.69-1.73h.04c1.23.01 2.46-.18 3.63-.58 1.17-.4 2.27-1.02 3.23-1.82.97-.79 1.8-1.77 2.43-2.86.65-1.09 1.09-2.31 1.3-3.58.45-2.54-.03-5.27-1.37-7.6-1.33-2.34-3.55-4.23-6.24-5.27z" class="st43"/><path d="M18.05 31.83l-1.04-.14c-2.89-.4-5.65-2.03-7.58-4.47-.95-1.2-1.68-2.63-2.11-4.14-.42-1.49-.57-3.07-.44-4.7.14-1.61.58-3.21 1.28-4.62.73-1.46 1.7-2.76 2.9-3.87 2.43-2.24 5.69-3.55 8.95-3.58.49 0 .95.18 1.3.52.35.34.55.8.55 1.29.01 1.01-.8 1.84-1.82 1.85h-.1c-1.21 0-2.39.2-3.52.58-1.16.4-2.23 1.01-3.18 1.8-.97.79-1.78 1.74-2.4 2.82-.64 1.06-1.07 2.25-1.29 3.53-.45 2.55.03 5.21 1.35 7.51 1.33 2.35 3.52 4.2 6.17 5.23l.98.39zm1.98-25.28h-.02c-3.2.03-6.4 1.31-8.79 3.51a13.076 13.076 0 0 0-2.85 3.8c-.68 1.39-1.12 2.95-1.25 4.53-.13 1.6.02 3.15.44 4.61a12.01 12.01 0 0 0 2.07 4.06c1.65 2.08 3.92 3.56 6.35 4.17-2.25-1.1-4.1-2.8-5.28-4.89-1.37-2.34-1.86-5.06-1.4-7.66.22-1.31.66-2.52 1.32-3.61.64-1.11 1.47-2.08 2.46-2.89.97-.81 2.07-1.43 3.26-1.85 1.17-.4 2.41-.6 3.67-.6l.03.12v-.12c.88-.01 1.58-.73 1.57-1.6 0-.43-.17-.82-.48-1.12-.29-.3-.69-.46-1.1-.46zM20.29 33.4a1.833 1.833 0 0 1-1.31-3.11c.34-.35.8-.55 1.29-.55h.03c1.25.02 2.46-.18 3.6-.57 1.16-.4 2.24-1.01 3.19-1.8.97-.79 1.78-1.74 2.41-2.83A10.23 10.23 0 0 0 30.79 21c.45-2.55-.03-5.22-1.36-7.52-1.33-2.35-3.53-4.2-6.18-5.22l-.99-.38 1.05.15c2.89.4 5.65 2.03 7.57 4.47.95 1.2 1.67 2.63 2.11 4.14.42 1.49.57 3.07.44 4.7-.14 1.61-.58 3.2-1.28 4.62-.73 1.46-1.7 2.76-2.9 3.87-2.42 2.24-5.68 3.55-8.94 3.59 0-.02-.01-.02-.02-.02zm.02-3.42h-.04c-.42.01-.82.18-1.12.48-.3.3-.46.71-.45 1.13.01.87.72 1.57 1.59 1.57h.02c3.21-.04 6.4-1.33 8.78-3.53 1.18-1.09 2.13-2.37 2.85-3.8.68-1.38 1.12-2.95 1.25-4.53.13-1.6-.02-3.15-.43-4.61-.42-1.48-1.14-2.88-2.06-4.06-1.64-2.08-3.9-3.56-6.33-4.17 2.24 1.09 4.09 2.8 5.28 4.88 1.36 2.35 1.85 5.08 1.39 7.68-.22 1.31-.66 2.53-1.32 3.62-.64 1.11-1.47 2.08-2.46 2.89-.98.81-2.08 1.43-3.27 1.84-1.18.42-2.42.62-3.68.61z" class="st46"/></g></g></switch></svg>