<?xml version="1.0" encoding="utf-8"?><svg xmlns="http://www.w3.org/2000/svg" viewBox="0 0 185.24 75.95"><defs><style>.cls-1{isolation:isolate;}.cls-2{fill:#ff69d5;}.cls-3{fill:#bc3c9e;}.cls-4{fill:#db2201;}.cls-5{fill:#bc1600;}.cls-6{fill:#fcdd53;}.cls-7{fill:none;stroke:#161616;stroke-miterlimit:10;}.cls-8{fill:#f1aa20;}.cls-9{fill:#fff2f7;mix-blend-mode:overlay;}.cls-10{fill:#fbe370;}</style></defs><title>quest_button</title><g class="cls-1"><g id="Vrstva_2" data-name="Vrstva 2"><g id="Vrstva_1-2" data-name="Vrstva 1"><path class="cls-2" d="M39.52,61.74a28.24,28.24,0,0,1,0-56.48H156.25a28.24,28.24,0,1,1,0,56.48Z"/><path d="M156.25,6a27.49,27.49,0,1,1,0,55H39.52a27.49,27.49,0,0,1,0-55H156.25m0-1.5H39.52a29,29,0,0,0,0,58H156.25a29,29,0,1,0,0-58Z"/><path class="cls-3" d="M156.25,54.93H39.52A27.49,27.49,0,0,1,12.2,30.47a27.69,27.69,0,0,0-.17,3h0A27.49,27.49,0,0,0,39.52,61H156.25a27.49,27.49,0,0,0,27.49-27.5h0a27.69,27.69,0,0,0-.17-3A27.49,27.49,0,0,1,156.25,54.93Z"/><path class="cls-4" d="M40,74.89,28.31,66.28a2.81,2.81,0,0,0-3.31,0L13.33,74.89a2.79,2.79,0,0,1-4.44-2.47L11.55,40.6a2.79,2.79,0,0,1,2.78-2.55H39a2.79,2.79,0,0,1,2.78,2.55l2.66,31.82A2.78,2.78,0,0,1,40,74.89Z"/><path class="cls-4" d="M40,70.19l-11.67-8.6a2.78,2.78,0,0,0-3.31,0L13.33,70.2a2.79,2.79,0,0,1-4.44-2.48L11.55,35.9a2.79,2.79,0,0,1,2.78-2.55H39a2.79,2.79,0,0,1,2.78,2.55l2.66,31.82A2.78,2.78,0,0,1,40,70.19Z"/><path class="cls-5" d="M40,70.19l-11.67-8.6a2.78,2.78,0,0,0-3.31,0L13.33,70.2a2.79,2.79,0,0,1-4.16-1l-.28,3.27a2.79,2.79,0,0,0,4.44,2.47L25,66.28a2.81,2.81,0,0,1,3.31,0L40,74.89a2.78,2.78,0,0,0,4.43-2.47l-.27-3.27A2.78,2.78,0,0,1,40,70.19Z"/><circle class="cls-6" cx="26.65" cy="26.65" r="26.15"/><path class="cls-7" d="M52.81,26.65A26.16,26.16,0,1,0,11,47.55L8.89,72.42a2.79,2.79,0,0,0,4.44,2.47L25,66.28a2.81,2.81,0,0,1,3.31,0L40,74.89a2.78,2.78,0,0,0,4.43-2.47L42.33,47.55A26.08,26.08,0,0,0,52.81,26.65Z"/><circle class="cls-8" cx="26.65" cy="26.65" r="19.21"/><circle class="cls-9" cx="41.74" cy="10.13" r="3.09"/><path class="cls-10" d="M28.14,13.61l3.23,6.55a1.66,1.66,0,0,0,1.24.9l7.23,1.05a1.65,1.65,0,0,1,.92,2.82L35.53,30a1.65,1.65,0,0,0-.48,1.46l1.24,7.2a1.65,1.65,0,0,1-2.4,1.74L27.42,37a1.65,1.65,0,0,0-1.53,0l-6.47,3.4A1.65,1.65,0,0,1,17,38.69l1.24-7.2A1.65,1.65,0,0,0,17.78,30l-5.23-5.1a1.65,1.65,0,0,1,.92-2.82l7.23-1.05a1.68,1.68,0,0,0,1.24-.9l3.23-6.55A1.66,1.66,0,0,1,28.14,13.61Z"/><circle class="cls-9" cx="26.65" cy="14.4" r="1.71"/><circle class="cls-9" cx="39.54" cy="23.71" r="1.71"/></g></g></g></svg>