<?xml version="1.0" encoding="utf-8"?><svg xmlns="http://www.w3.org/2000/svg" id="Vrstva_1" x="0" y="0" version="1.1" viewBox="0 0 364.5 35.1" xml:space="preserve"><style></style><path d="M346.7 31.1H17.9C8.7 31.1 1.2 24.2.2 15.3c-.2.6-.2 1.3-.2 1.9 0 9.9 8 17.9 17.9 17.9h328.8c9.9 0 17.9-8 17.9-17.9 0-.7 0-1.4-.1-2-1.1 8.9-8.6 15.9-17.8 15.9z" opacity=".19"/><path fill="#fefff5" d="M346 4.4H17.2c-1.2 0-2.2-1-2.2-2.2C15 1 16 0 17.2 0H346c1.2 0 2.2 1 2.2 2.2-.1 1.2-1 2.2-2.2 2.2z" opacity=".28"/></svg>