<?xml version="1.0" encoding="utf-8"?><svg xmlns="http://www.w3.org/2000/svg" data-name="Vrstva 1" viewBox="0 0 519.54 91.42"><rect width="514.45" height="73.73" x="2.43" y="15.39" fill="#1a1a1a" rx="23.49"/><rect width="514.45" height="73.73" x="2.43" y="10.58" fill="#ccc" rx="23.49"/><path fill="#fff" d="M493.39 2.49H26A23.58 23.58 0 0 0 2.43 26.07v26.56A23.59 23.59 0 0 0 26 76.22h467.39a23.49 23.49 0 0 0 23.49-23.49V26a23.49 23.49 0 0 0-23.49-23.51z" opacity=".32"/><path d="M493.39 2.49A23.49 23.49 0 0 1 516.88 26v39.63a23.49 23.49 0 0 1-23.49 23.49H25.92A23.49 23.49 0 0 1 2.43 65.63V26A23.49 23.49 0 0 1 25.92 2.5h467.47m0-1H25.92A24.52 24.52 0 0 0 1.43 26v39.63a24.52 24.52 0 0 0 24.49 24.49h467.47a24.52 24.52 0 0 0 24.49-24.49V26a24.52 24.52 0 0 0-24.49-24.51z"/></svg>