<svg xmlns="http://www.w3.org/2000/svg" xmlns:xlink="http://www.w3.org/1999/xlink" viewBox="0 0 474.62 595.58"><defs><style>.cls-1{isolation:isolate;}.cls-2{fill:url(#Nepojmenovaný_přechod_13);}.cls-3{fill:#780097;}.cls-4,.cls-5{fill:#fff2f7;mix-blend-mode:overlay;}.cls-4{opacity:0.26;}.cls-5{opacity:0.5;}.cls-6{opacity:0.39;}.cls-7{fill:#6e0d7f;}</style><linearGradient id="Nepojmenovaný_přechod_13" x1="234.42" y1="12.57" x2="240.19" y2="581.56" gradientUnits="userSpaceOnUse"><stop offset="0" stop-color="#4972ff"/><stop offset="1" stop-color="#bf22ff"/></linearGradient></defs><title>bg</title><g class="cls-1"><g id="Vrstva_2" data-name="Vrstva 2"><g id="Vrstva_1-2" data-name="Vrstva 1"><rect class="cls-2" x="1" y="1" width="472.62" height="593.58" rx="31"/><path d="M442.62,2a30,30,0,0,1,30,30V563.58a30,30,0,0,1-30,30H32a30,30,0,0,1-30-30V32A30,30,0,0,1,32,2H442.62m0-2H32A32,32,0,0,0,0,32V563.58a32,32,0,0,0,32,32H442.62a32,32,0,0,0,32-32V32a32,32,0,0,0-32-32Z"/><path class="cls-3" d="M446.55,586.16H28.07A26.07,26.07,0,0,1,2,560.09v4.14c0,18.1,16.47,29.35,29.11,29.35H444.19c12,0,28.43-9.82,28.43-31.3v-2.19A26.07,26.07,0,0,1,446.55,586.16Z"/><rect class="cls-4" x="24.14" y="2.01" width="426.8" height="6.95" rx="3.47"/><rect class="cls-5" x="195.43" y="2.01" width="48.78" height="6.95" rx="3.47"/><rect class="cls-5" x="253.41" y="2.01" width="12.32" height="6.95" rx="3.47"/><g class="cls-6"><rect class="cls-7" x="366.86" y="86.91" width="4.35" height="15.8" rx="2.17"/><rect class="cls-7" x="430.7" y="490.22" width="4.35" height="15.8" rx="2.17"/><rect class="cls-7" x="111.21" y="298.2" width="4.35" height="15.8" rx="2.17"/><rect class="cls-7" x="42.61" y="333.23" width="4.35" height="15.8" rx="2.17"/><rect class="cls-7" x="105.34" y="105.15" width="4.35" height="15.8" rx="2.17" transform="translate(-47.61 96.41) rotate(-40.32)"/><rect class="cls-7" x="138.9" y="202.56" width="4.35" height="15.8" rx="2.17" transform="translate(-102.66 141.27) rotate(-40.32)"/><rect class="cls-7" x="334" y="459.63" width="4.35" height="15.8" rx="2.17" transform="translate(-222.65 328.55) rotate(-40.32)"/><rect class="cls-7" x="385.99" y="522.41" width="15.8" height="4.35" rx="2.17" transform="translate(-92.72 84.64) rotate(-10.98)"/><rect class="cls-7" x="432.38" y="561.67" width="15.8" height="4.35" rx="2.17" transform="translate(-182.34 916.12) rotate(-81.52)"/><rect class="cls-7" x="431.28" y="173.07" width="15.8" height="4.35" rx="2.17" transform="translate(67.82 467.97) rotate(-60)"/><rect class="cls-7" x="442.98" y="245.16" width="4.35" height="15.8" rx="2.17" transform="translate(-66.26 278.83) rotate(-32.5)"/><rect class="cls-7" x="271.03" y="370.74" width="15.8" height="4.35" rx="2.17" transform="translate(-183.49 428.02) rotate(-60)"/><rect class="cls-7" x="442.63" y="29.78" width="4.35" height="15.8" rx="2.17" transform="translate(103.63 325.56) rotate(-45)"/><rect class="cls-7" x="340.65" y="253.79" width="15.8" height="4.35" rx="2.17" transform="translate(-78.91 321.43) rotate(-45)"/><rect class="cls-7" x="365.74" y="325.82" width="15.8" height="4.35" rx="2.17" transform="translate(-122.49 360.27) rotate(-45)"/><rect class="cls-7" x="157.14" y="355.58" width="15.8" height="4.35" rx="2.17" transform="translate(-204.63 221.49) rotate(-45)"/><rect class="cls-7" x="37.4" y="248.07" width="4.35" height="15.8" rx="2.17" transform="translate(-156.21 86.4) rotate(-40.32)"/><rect class="cls-7" x="37.4" y="480.53" width="4.35" height="15.8" rx="2.17" transform="translate(-306.62 141.61) rotate(-40.32)"/><rect class="cls-7" x="186.03" y="416.44" width="15.8" height="4.35" rx="2.17" transform="translate(-263.54 478.29) rotate(-72.57)"/><rect class="cls-7" x="364.19" y="32.52" width="4.35" height="15.8" rx="2.17" transform="translate(148.17 337.49) rotate(-60)"/><rect class="cls-7" x="248.95" y="99.09" width="15.8" height="4.35" rx="2.17" transform="translate(-14.18 153.88) rotate(-32.5)"/><rect class="cls-7" x="181.02" y="141.47" width="15.8" height="4.35" rx="2.17" transform="translate(-47.59 124.02) rotate(-32.5)"/><rect class="cls-7" x="324.81" y="80.5" width="15.8" height="4.35" rx="2.17" transform="translate(7.69 191.73) rotate(-32.5)"/><rect class="cls-7" x="347.65" y="159.65" width="15.8" height="4.35" rx="2.17" transform="translate(-31.26 216.4) rotate(-32.5)"/><rect class="cls-7" x="42.61" y="173.32" width="4.35" height="15.8" rx="2.17" transform="translate(-63.03 28.83) rotate(-21.4)"/><rect class="cls-7" x="256.33" y="187.23" width="15.8" height="4.35" rx="2.17" transform="translate(-60.82 195) rotate(-36.62)"/><rect class="cls-7" x="232.43" y="272.2" width="15.8" height="4.35" rx="2.17" transform="translate(-116.22 197.51) rotate(-36.62)"/><rect class="cls-7" x="369.9" y="421.84" width="15.8" height="4.35" rx="2.17" transform="matrix(0.8, -0.6, 0.6, 0.8, -178.35, 309.04)"/><rect class="cls-7" x="46.09" y="24.7" width="4.35" height="15.8" rx="2.17" transform="translate(-6.47 52.5) rotate(-54.02)"/><rect class="cls-7" x="78.78" y="433.94" width="4.35" height="15.8" rx="2.17" transform="translate(-324.15 247.76) rotate(-54.02)"/><rect class="cls-7" x="185.5" y="13.92" width="15.8" height="4.35" rx="2.17" transform="translate(82.77 175.54) rotate(-60)"/><rect class="cls-7" x="152.64" y="481.9" width="15.8" height="4.35" rx="2.17" transform="matrix(0.5, -0.87, 0.87, 0.5, -338.95, 381.07)"/><rect class="cls-7" x="117.44" y="535.8" width="4.35" height="15.8" rx="2.17" transform="translate(-435.79 581.8) rotate(-81.52)"/><rect class="cls-7" x="37.32" y="550.93" width="15.8" height="4.35" rx="2.17" transform="translate(-472.77 353.97) rotate(-64.3)"/><rect class="cls-7" x="265.19" y="478.09" width="15.8" height="4.35" rx="2.17" transform="translate(-259.61 333.77) rotate(-45)"/><rect class="cls-7" x="334" y="555.94" width="4.35" height="15.8" rx="2.17" transform="translate(-284.96 351.43) rotate(-40.32)"/><rect class="cls-7" x="225.81" y="531.08" width="4.35" height="15.8" rx="2.17" transform="translate(-320.85 742.11) rotate(-87.38)"/><rect class="cls-7" x="437.25" y="349.12" width="15.8" height="4.35" rx="2.17" transform="translate(-112.93 451.84) rotate(-48.49)"/></g></g></g></g></svg>