<?xml version="1.0" encoding="utf-8"?><svg xmlns="http://www.w3.org/2000/svg" id="Vrstva_1" x="0" y="0" version="1.1" viewBox="0 0 545.49 545.49" xml:space="preserve"><style>.st1{fill:#6e0d7f}.st3{opacity:.5;fill:#fff2f7}</style><switch><g><path fill="#5b0068" d="M32 544.49c-17.09 0-31-13.91-31-31V32C1 14.91 14.91 1 32 1h481.49c17.09 0 31 13.91 31 31v481.49c0 17.09-13.91 31-31 31H32z"/><path d="M513.49 2c16.57 0 30 13.43 30 30v481.49c0 16.57-13.43 30-30 30H32c-16.57 0-30-13.43-30-30V32C2 15.43 15.43 2 32 2h481.49m0-2H32C14.36 0 0 14.36 0 32v481.49c0 17.64 14.36 32 32 32h481.49c17.64 0 32-14.36 32-32V32c0-17.64-14.35-32-32-32z"/><path d="M424.99 91.5a2.5 2.5 0 0 1 2.5 2.5v13.18a2.5 2.5 0 0 1-5 0V94a2.5 2.5 0 0 1 2.5-2.5zM485.53 226.06c.53 1.27-.07 2.74-1.34 3.27l-12.16 5.1c-1.27.53-2.74-.07-3.27-1.34-.53-1.27.07-2.74 1.34-3.27l12.16-5.1c1.27-.54 2.74.06 3.27 1.34zM491.78 339.73a2.5 2.5 0 0 1 2.5 2.5v13.18a2.5 2.5 0 0 1-5 0v-13.18a2.5 2.5 0 0 1 2.5-2.5zM492.5 122.5c1.2.69 1.61 2.22.92 3.42l-6.59 11.42a2.503 2.503 0 0 1-3.42.92 2.503 2.503 0 0 1-.92-3.42l6.59-11.42c.7-1.2 2.23-1.61 3.42-.92zM505.05 36.63c.98-.98 2.56-.98 3.54 0l9.32 9.32c.98.98.98 2.56 0 3.54s-2.56.98-3.54 0l-9.32-9.32c-.97-.98-.97-2.57 0-3.54zM407.16 287.78c.98.98.98 2.56 0 3.54l-9.32 9.32c-.98.98-2.56.98-3.54 0s-.98-2.56 0-3.54l9.32-9.32c.98-.97 2.57-.97 3.54 0zM317.16 378.01a2.502 2.502 0 0 1-3.53.26l-9.98-8.61a2.502 2.502 0 0 1-.26-3.53c.9-1.05 2.48-1.16 3.53-.26l9.98 8.61c1.05.9 1.17 2.48.26 3.53zM245.21 505.47a2.511 2.511 0 0 1-2.77 2.2l-13.09-1.52a2.511 2.511 0 0 1-2.2-2.77c.16-1.37 1.4-2.35 2.77-2.2l13.09 1.52c1.38.16 2.36 1.4 2.2 2.77zM368.03 471.11a2.5 2.5 0 0 1-2.5 2.5h-13.18a2.5 2.5 0 0 1 0-5h13.18a2.5 2.5 0 0 1 2.5 2.5zM478.62 492.98c.98.98.98 2.56 0 3.54l-9.32 9.32c-.98.98-2.56.98-3.54 0s-.98-2.56 0-3.54l9.32-9.32c.98-.97 2.57-.97 3.54 0zM114.94 488.82a2.494 2.494 0 0 1-3.25 1.39l-12.24-4.89a2.494 2.494 0 0 1-1.39-3.25 2.494 2.494 0 0 1 3.25-1.39l12.24 4.89c1.27.51 1.9 1.97 1.39 3.25zM440.4 412.76c1.28.52 1.9 1.97 1.38 3.25l-4.94 12.22a2.493 2.493 0 0 1-3.25 1.38 2.493 2.493 0 0 1-1.38-3.25l4.94-12.22c.51-1.28 1.97-1.89 3.25-1.38zM39.35 287.28c1.05-.89 2.63-.76 3.52.29l8.53 10.05c.89 1.05.76 2.63-.29 3.52-1.05.89-2.63.76-3.52-.29l-8.53-10.05c-.9-1.05-.77-2.63.29-3.52zM58.61 424.18c.35 1.34-.46 2.7-1.79 3.05l-12.76 3.3c-1.34.35-2.7-.46-3.05-1.79-.35-1.34.46-2.7 1.79-3.05l12.76-3.3c1.34-.35 2.7.45 3.05 1.79zM118.87 353.64a2.5 2.5 0 0 1 1.66 3.12l-3.85 12.61a2.5 2.5 0 0 1-4.78-1.46l3.85-12.61c.41-1.32 1.8-2.06 3.12-1.66zM202.92 425.56a2.51 2.51 0 0 1-3.51.45l-10.42-8.07a2.51 2.51 0 0 1-.45-3.51 2.51 2.51 0 0 1 3.51-.45l10.42 8.07a2.51 2.51 0 0 1 .45 3.51zM285.31 436.2c.74 1.17.39 2.71-.78 3.45l-11.15 7.03c-1.17.74-2.71.39-3.45-.78-.74-1.17-.39-2.71.78-3.45l11.15-7.03c1.17-.74 2.72-.39 3.45.78zM463.05 35.11a2.503 2.503 0 0 1-3.42.92l-11.42-6.59a2.503 2.503 0 0 1-.92-3.42c.69-1.2 2.22-1.61 3.42-.92l11.42 6.59c1.2.69 1.61 2.22.92 3.42zM302.9 111.33c.74 1.16.4 2.71-.77 3.45l-11.12 7.08c-1.16.74-2.71.4-3.45-.77-.74-1.16-.4-2.71.77-3.45l11.12-7.08c1.16-.74 2.7-.4 3.45.77zM173.77 90.5c.74 1.16.4 2.71-.77 3.45l-11.12 7.08c-1.16.74-2.71.4-3.45-.77-.74-1.16-.4-2.71.77-3.45l11.12-7.08c1.17-.74 2.71-.4 3.45.77zM370.14 58.45c.74 1.16.4 2.71-.77 3.45l-11.12 7.08c-1.16.74-2.71.4-3.45-.77-.74-1.16-.4-2.71.77-3.45l11.12-7.08c1.16-.73 2.71-.39 3.45.77zM379.27 190.42a2.506 2.506 0 0 1-3.52.37l-10.25-8.29a2.506 2.506 0 0 1-.37-3.52 2.506 2.506 0 0 1 3.52-.37l10.25 8.29c1.07.87 1.24 2.45.37 3.52zM215.75 306.44c1.16-.74 2.71-.4 3.45.77l7.08 11.12c.74 1.16.4 2.71-.77 3.45-1.16.74-2.71.4-3.45-.77l-7.08-11.12c-.73-1.17-.39-2.71.77-3.45zM148.7 233.47c.86 1.08.69 2.65-.39 3.51l-10.3 8.23c-1.08.86-2.65.69-3.51-.39-.86-1.08-.69-2.65.39-3.51l10.3-8.23c1.07-.87 2.64-.69 3.51.39zM238.12 184.83c.93 1.02.85 2.6-.17 3.53l-9.76 8.86a2.499 2.499 0 1 1-3.36-3.7l9.76-8.86c1.02-.93 2.6-.85 3.53.17zM39.44 108.26a2.492 2.492 0 0 1 3.46-.72l11.03 7.22c1.16.76 1.48 2.31.72 3.46a2.492 2.492 0 0 1-3.46.72l-11.03-7.22a2.51 2.51 0 0 1-.72-3.46zM54.55 216.67c-1.29.5-2.74-.13-3.24-1.42l-4.81-12.27c-.5-1.29.13-2.74 1.42-3.24s2.74.13 3.24 1.42l4.81 12.27c.49 1.29-.14 2.74-1.42 3.24zM312.53 264.79c.82 1.11.59 2.67-.52 3.5l-10.58 7.86c-1.11.82-2.67.59-3.5-.52-.82-1.11-.59-2.67.52-3.5l10.58-7.86c1.11-.82 2.67-.59 3.5.52zM62.59 42.55a2.486 2.486 0 0 1-3.49.55l-10.67-7.74a2.486 2.486 0 0 1-.55-3.49 2.486 2.486 0 0 1 3.49-.55l10.67 7.74c1.11.81 1.36 2.37.55 3.49zM225.74 45.33a2.503 2.503 0 0 1-.92-3.42l6.59-11.42c.69-1.2 2.22-1.61 3.42-.92 1.2.69 1.61 2.22.92 3.42l-6.59 11.42c-.7 1.2-2.22 1.61-3.42.92z" class="st1"/><g><path fill="#fff2f7" d="M514.56 10H31.44c-2.2 0-3.98-1.78-3.98-3.98v-.04c0-2.2 1.78-3.98 3.98-3.98h483.12c2.2 0 3.98 1.78 3.98 3.98v.04c0 2.2-1.78 3.98-3.98 3.98z" opacity=".26"/><path d="M280.69 10h-48.13c-2.21 0-4-1.79-4-4s1.79-4 4-4h48.13c2.21 0 4 1.79 4 4-.01 2.21-1.8 4-4 4zM305.43 10h-6.18c-2.21 0-4-1.79-4-4s1.79-4 4-4h6.18c2.21 0 4 1.79 4 4s-1.79 4-4 4z" class="st3"/></g></g></switch></svg>