<?xml version="1.0" encoding="utf-8"?><svg xmlns="http://www.w3.org/2000/svg" id="Vrstva_1" x="0" y="0" version="1.1" viewBox="0 0 566.21 696.21" xml:space="preserve"><style>.st2{fill:#6e0d7f}.st4{opacity:.5;fill:#fff2f7}</style><switch><g><path fill="#5b0068" d="M42.03 690.27c-17.09 0-31-13.91-31-31V38.61c0-17.09 13.91-31 31-31h481.49c17.09 0 31 13.91 31 31v620.66c0 17.09-13.91 31-31 31H42.03z"/><path d="M523.52 8.61c16.57 0 30 13.43 30 30v620.66c0 16.57-13.43 30-30 30H42.03c-16.57 0-30-13.43-30-30V38.61c0-16.57 13.43-30 30-30h481.49m0-2H42.03c-17.64 0-32 14.36-32 32v620.66c0 17.64 14.36 32 32 32h481.49c17.64 0 32-14.36 32-32V38.61c0-17.65-14.35-32-32-32z"/><path fill="#43004f" d="M523.52 680.74H42.03c-16.57 0-30-13.43-30-30v8.53c0 16.57 13.43 30 30 30h481.49c16.57 0 30-13.43 30-30v-8.53c0 16.56-13.43 30-30 30z"/><path d="M434.33 106.3a2.5 2.5 0 0 1 2.5 2.5v13.18a2.5 2.5 0 0 1-5 0V108.8a2.5 2.5 0 0 1 2.5-2.5zM507.79 570.34a2.5 2.5 0 0 1 2.5 2.5v13.18a2.5 2.5 0 0 1-5 0v-13.18a2.5 2.5 0 0 1 2.5-2.5zM140.19 349.4a2.5 2.5 0 0 1 2.5 2.5v13.18a2.5 2.5 0 0 1-5 0V351.9a2.5 2.5 0 0 1 2.5-2.5zM61.26 389.71a2.5 2.5 0 0 1 2.5 2.5v13.18a2.5 2.5 0 0 1-5 0v-13.18a2.5 2.5 0 0 1 2.5-2.5zM127.54 129.45c1.05-.89 2.63-.76 3.52.29l8.53 10.05c.89 1.05.76 2.63-.29 3.52-1.05.89-2.63.76-3.52-.29l-8.53-10.05c-.89-1.05-.76-2.63.29-3.52zM166.17 241.53c1.05-.89 2.63-.76 3.52.29l8.53 10.05c.89 1.05.76 2.63-.29 3.52-1.05.89-2.63.76-3.52-.29l-8.53-10.05c-.89-1.05-.76-2.63.29-3.52zM390.64 537.3c1.05-.89 2.63-.76 3.52.29l8.53 10.05c.89 1.05.76 2.63-.29 3.52-1.05.89-2.63.76-3.52-.29l-8.53-10.05c-.89-1.05-.76-2.62.29-3.52zM454.01 611.61c-.26-1.36.62-2.67 1.98-2.93l12.94-2.51c1.36-.26 2.67.62 2.93 1.98.26 1.36-.62 2.67-1.98 2.93l-12.94 2.51c-1.36.26-2.67-.62-2.93-1.98zM517.65 646.06a2.49 2.49 0 0 1 2.1 2.84l-1.94 13.04a2.49 2.49 0 0 1-2.84 2.1 2.49 2.49 0 0 1-2.1-2.84l1.94-13.04c.21-1.36 1.48-2.31 2.84-2.1zM519.59 200.07c1.2.69 1.61 2.22.92 3.42l-6.59 11.42a2.503 2.503 0 0 1-3.42.92 2.503 2.503 0 0 1-.92-3.42l6.59-11.42c.7-1.2 2.23-1.61 3.42-.92zM517.03 289.81c1.16-.74 2.71-.4 3.45.77l7.08 11.12c.74 1.16.4 2.71-.77 3.45-1.16.74-2.71.4-3.45-.77l-7.08-11.12c-.74-1.16-.4-2.71.77-3.45zM335.21 427.5c1.2.69 1.61 2.22.92 3.42l-6.59 11.42a2.503 2.503 0 0 1-3.42.92 2.503 2.503 0 0 1-.92-3.42l6.59-11.42c.69-1.2 2.22-1.61 3.42-.92zM515.08 43.23c.98-.98 2.56-.98 3.54 0l9.32 9.32c.98.98.98 2.56 0 3.54s-2.56.98-3.54 0l-9.32-9.32c-.97-.98-.97-2.56 0-3.54zM417.19 294.39c.98.98.98 2.56 0 3.54l-9.32 9.32c-.98.98-2.56.98-3.54 0s-.98-2.56 0-3.54l9.32-9.32c.98-.98 2.57-.98 3.54 0zM446.06 377.26c.98.98.98 2.56 0 3.54l-9.32 9.32c-.98.98-2.56.98-3.54 0s-.98-2.56 0-3.54l9.32-9.32c.98-.98 2.57-.98 3.54 0zM206.05 411.5c.98.98.98 2.56 0 3.54l-9.32 9.32c-.98.98-2.56.98-3.54 0s-.98-2.56 0-3.54l9.32-9.32c.98-.98 2.57-.98 3.54 0zM49.38 293.88c1.05-.89 2.63-.76 3.52.29l8.53 10.05c.89 1.05.76 2.63-.29 3.52-1.05.89-2.63.76-3.52-.29l-8.53-10.05c-.89-1.05-.77-2.62.29-3.52zM49.38 561.35c1.05-.89 2.63-.76 3.52.29l8.53 10.05c.89 1.05.76 2.63-.29 3.52-1.05.89-2.63.76-3.52-.29l-8.53-10.05c-.89-1.05-.77-2.63.29-3.52zM235.59 479.28a2.5 2.5 0 0 1 1.64 3.13l-3.95 12.58a2.5 2.5 0 0 1-3.13 1.64 2.5 2.5 0 0 1-1.64-3.13l3.95-12.58a2.488 2.488 0 0 1 3.13-1.64zM439.13 57.36a2.503 2.503 0 0 1-3.42.92l-11.42-6.59a2.503 2.503 0 0 1-.92-3.42c.69-1.2 2.22-1.61 3.42-.92l11.42 6.59c1.2.7 1.61 2.22.92 3.42zM312.93 117.93c.74 1.16.4 2.71-.77 3.45l-11.12 7.08c-1.16.74-2.71.4-3.45-.77-.74-1.16-.4-2.71.77-3.45l11.12-7.08c1.16-.74 2.7-.39 3.45.77zM234.77 166.7c.74 1.16.4 2.71-.77 3.45l-11.12 7.08c-1.16.74-2.71.4-3.45-.77-.74-1.16-.4-2.71.77-3.45l11.12-7.08c1.16-.74 2.71-.4 3.45.77zM400.21 96.55c.74 1.16.4 2.71-.77 3.45l-11.12 7.08c-1.16.74-2.71.4-3.45-.77-.74-1.16-.4-2.71.77-3.45l11.12-7.08c1.16-.74 2.7-.4 3.45.77zM426.49 187.61c.74 1.16.4 2.71-.77 3.45l-11.12 7.08c-1.16.74-2.71.4-3.45-.77-.74-1.16-.4-2.71.77-3.45l11.12-7.08c1.16-.73 2.71-.39 3.45.77zM64.58 223.28c-1.29.5-2.74-.13-3.24-1.42l-4.81-12.27c-.5-1.29.13-2.74 1.42-3.24s2.74.13 3.24 1.42L66 220.04c.5 1.29-.14 2.74-1.42 3.24zM321.05 218.81c.82 1.11.59 2.67-.52 3.5l-10.58 7.86c-1.11.82-2.67.59-3.5-.52-.82-1.11-.59-2.67.52-3.5l10.58-7.86c1.11-.82 2.68-.59 3.5.52zM293.55 316.57c.82 1.11.59 2.67-.52 3.5l-10.58 7.86c-1.11.82-2.67.59-3.5-.52-.82-1.11-.59-2.67.52-3.5l10.58-7.86c1.11-.82 2.67-.59 3.5.52zM451.72 488.75c.82 1.11.59 2.67-.52 3.5l-10.58 7.86c-1.11.82-2.67.59-3.5-.52-.82-1.11-.59-2.67.52-3.5l10.58-7.86c1.11-.82 2.67-.59 3.5.52zM72.62 49.16a2.486 2.486 0 0 1-3.49.55l-10.67-7.74a2.486 2.486 0 0 1-.55-3.49 2.486 2.486 0 0 1 3.49-.55l10.67 7.74c1.11.81 1.36 2.37.55 3.49zM110.23 520.02a2.486 2.486 0 0 1-3.49.55l-10.67-7.74a2.486 2.486 0 0 1-.55-3.49 2.486 2.486 0 0 1 3.49-.55l10.67 7.74c1.12.81 1.37 2.37.55 3.49zM227.71 32.69a2.503 2.503 0 0 1-.92-3.42l6.59-11.42c.69-1.2 2.22-1.61 3.42-.92 1.2.69 1.61 2.22.92 3.42l-6.59 11.42a2.503 2.503 0 0 1-3.42.92zM189.9 571.14a2.503 2.503 0 0 1-.92-3.42l6.59-11.42c.69-1.2 2.22-1.61 3.42-.92 1.2.69 1.61 2.22.92 3.42l-6.59 11.42c-.7 1.2-2.22 1.61-3.42.92zM138.37 630.54a2.49 2.49 0 0 1 2.84-2.1l13.04 1.94a2.49 2.49 0 0 1 2.1 2.84 2.49 2.49 0 0 1-2.84 2.1l-13.04-1.94a2.484 2.484 0 0 1-2.1-2.84zM65.7 634.5c1.24.6 1.77 2.09 1.17 3.34l-5.72 11.88a2.505 2.505 0 0 1-3.34 1.17 2.505 2.505 0 0 1-1.17-3.34l5.72-11.88a2.52 2.52 0 0 1 3.34-1.17zM317.52 565.32c-.98-.98-.98-2.56 0-3.54l9.32-9.32c.98-.98 2.56-.98 3.54 0s.98 2.56 0 3.54l-9.32 9.32c-.99.98-2.57.98-3.54 0zM390.64 648.12c1.05-.89 2.63-.76 3.52.29l8.53 10.05c.89 1.05.76 2.63-.29 3.52-1.05.89-2.63.76-3.52-.29l-8.53-10.05c-.89-1.05-.76-2.63.29-3.52zM262.96 626.03a2.489 2.489 0 0 1 2.61-2.38l13.17.6c1.38.06 2.45 1.23 2.38 2.61a2.489 2.489 0 0 1-2.61 2.38l-13.17-.6a2.489 2.489 0 0 1-2.38-2.61z" class="st2"/><path fill="#fff2f7" d="M524.59 16.61H41.48c-2.2 0-3.98-1.78-3.98-3.98v-.04c0-2.2 1.78-3.98 3.98-3.98H524.6c2.2 0 3.98 1.78 3.98 3.98v.04a3.993 3.993 0 0 1-3.99 3.98z" opacity=".26"/><path d="M286.72 16.61h-48.13c-2.21 0-4-1.79-4-4s1.79-4 4-4h48.13c2.21 0 4 1.79 4 4s-1.79 4-4 4zM311.47 16.61h-6.18c-2.21 0-4-1.79-4-4s1.79-4 4-4h6.18c2.21 0 4 1.79 4 4-.01 2.21-1.8 4-4 4z" class="st4"/><g><path d="M515.89 417.3a2.51 2.51 0 0 1-.22-3.53l8.74-9.87a2.51 2.51 0 0 1 3.53-.22c1.03.92 1.13 2.5.22 3.53l-8.74 9.87a2.492 2.492 0 0 1-3.53.22z" class="st2"/></g></g></switch></svg>