<?xml version="1.0" encoding="utf-8"?><svg xmlns="http://www.w3.org/2000/svg" id="Vrstva_1" x="0" y="0" version="1.1" viewBox="0 0 456.9 249.9" xml:space="preserve"><style>.st2{fill:#6e0d7f}.st4{opacity:.5;fill:#fff2f7}</style><path fill="#5b0068" d="M31.6 239.9c-11.6 0-21-9.4-21-21v-188c0-11.6 9.4-21 21-21h393.7c11.6 0 21 9.4 21 21v188c0 11.6-9.4 21-21 21H31.6z"/><path d="M425.3 10.9c11 0 20 9 20 20v188c0 11-9 20-20 20H31.6c-11 0-20-9-20-20v-188c0-11 9-20 20-20h393.7m0-2H31.6c-12.1 0-22 9.9-22 22v188c0 12.1 9.9 22 22 22h393.7c12.1 0 22-9.9 22-22v-188c0-12.1-9.9-22-22-22z"/><path d="M308.3 25.2c1.3-.4 2.7.4 3.1 1.7l3.6 12.7c.4 1.3-.4 2.7-1.7 3.1-1.3.4-2.7-.4-3.1-1.7l-3.6-12.7c-.4-1.3.4-2.7 1.7-3.1z" class="st2"/><path fill="#41024c" d="M425.3 226.4H31.6c-11 0-20-9-20-20v12c0 11 9 20 20 20h393.7c11 0 20-9 20-20v-12c0 11.1-9 20-20 20z"/><path d="M59.3 154.1c1.2.7 1.6 2.2.9 3.4l-6.6 11.4c-.7 1.2-2.2 1.6-3.4.9-1.2-.7-1.6-2.2-.9-3.4l6.6-11.4c.7-1.2 2.2-1.6 3.4-.9zM122.1 193.4c.4-1.3 1.8-2.1 3.1-1.7l12.7 3.6c1.3.4 2.1 1.8 1.7 3.1-.4 1.3-1.8 2.1-3.1 1.7l-12.7-3.6c-1.4-.4-2.1-1.7-1.7-3.1zM368.3 110.2c1.3-.4 2.7.4 3.1 1.7l3.6 12.7c.4 1.3-.4 2.7-1.7 3.1-1.3.4-2.7-.4-3.1-1.7l-3.6-12.7c-.4-1.3.4-2.7 1.7-3.1zM288.8 176.1c-.3 1.4-1.6 2.2-2.9 2l-13-2.4c-1.4-.3-2.2-1.6-2-2.9.3-1.4 1.6-2.2 2.9-2l13 2.4c1.4.2 2.3 1.6 2 2.9zM414.7 208.2c.1-1.4 1.3-2.4 2.7-2.3l13.1 1c1.4.1 2.4 1.3 2.3 2.7-.1 1.4-1.3 2.4-2.7 2.3l-13.1-1c-1.4-.1-2.4-1.3-2.3-2.7zM133.2 95.6c1.3-.6 2.7 0 3.3 1.3l5.3 12.1c.6 1.3 0 2.7-1.3 3.3-1.3.6-2.7 0-3.3-1.3l-5.3-12.1c-.6-1.3 0-2.7 1.3-3.3zM21.8 28.6c.2-1.4 1.5-2.3 2.8-2.1l13 1.9c1.4.2 2.3 1.5 2.1 2.8-.2 1.4-1.5 2.3-2.8 2.1l-13-1.9c-1.4-.2-2.3-1.4-2.1-2.8zM235.4 80.5c-.1-1.4 1-2.6 2.4-2.6l13.2-.7c1.4-.1 2.6 1 2.6 2.4.1 1.4-1 2.6-2.4 2.6l-13.2.7c-1.3.1-2.5-1-2.6-2.4z" class="st2"/><g><path fill="#fff2f7" d="M427.3 18.9h-395c-2.2 0-4-1.8-4-4s1.8-4 4-4h395c2.2 0 4 1.8 4 4 0 2.3-1.8 4-4 4z" opacity=".26"/><path d="M207.3 18.9h-38.1c-2.2 0-4-1.8-4-4s1.8-4 4-4h38.1c2.2 0 4 1.8 4 4 0 2.3-1.8 4-4 4zM227.6 18.9H224c-2.2 0-4-1.8-4-4s1.8-4 4-4h3.6c2.2 0 4 1.8 4 4 0 2.3-1.8 4-4 4z" class="st4"/></g></svg>