<?xml version="1.0" encoding="utf-8"?><svg xmlns="http://www.w3.org/2000/svg" id="Vrstva_1" x="0" y="0" version="1.1" viewBox="0 0 457.9 410.9" xml:space="preserve"><style>.st2{fill:#6e0d7f}.st4{opacity:.5;fill:#fff2f7}</style><path fill="#5b0068" d="M32.6 402.6c-11.6 0-21-9.4-21-21v-349c0-11.6 9.4-21 21-21h393.7c11.6 0 21 9.4 21 21v349c0 11.6-9.4 21-21 21H32.6z"/><path d="M426.3 12.6c11 0 20 9 20 20v349c0 11-9 20-20 20H32.6c-11 0-20-9-20-20v-349c0-11 9-20 20-20h393.7m0-2H32.6c-12.1 0-22 9.9-22 22v349c0 12.1 9.9 22 22 22h393.7c12.1 0 22-9.9 22-22v-349c0-12.2-9.9-22-22-22z"/><path fill="#41024c" d="M426.3 389.1H32.6c-11 0-20-9-20-20v12c0 11 9 20 20 20h393.7c11 0 20-9 20-20v-12c0 11-8.9 20-20 20z"/><path d="M218 144.6c1.1-.9 2.6-.8 3.5.3L230 155c.9 1.1.8 2.6-.3 3.5-1.1.9-2.6.8-3.5-.3l-8.5-10.1c-.9-1-.8-2.6.3-3.5zM145.1 258.1c.8 1.1.6 2.7-.5 3.5l-10.6 7.9c-1.1.8-2.7.6-3.5-.5-.8-1.1-.6-2.7.5-3.5l10.6-7.9c1.2-.8 2.7-.6 3.5.5zM98 142.7c1.3.3 2.2 1.7 1.8 3l-3.1 12.8c-.3 1.3-1.7 2.2-3 1.8-1.3-.3-2.2-1.7-1.8-3l3.1-12.8c.3-1.3 1.6-2.1 3-1.8zM422.4 202.7c1.2.7 1.6 2.2.9 3.4l-6.6 11.4c-.7 1.2-2.2 1.6-3.4.9-1.2-.7-1.6-2.2-.9-3.4l6.6-11.4c.7-1.2 2.2-1.6 3.4-.9zM304.9 251.1c.1 1.4-1 2.6-2.4 2.6l-13.2.7c-1.4.1-2.6-1-2.6-2.4-.1-1.4 1-2.6 2.4-2.6l13.2-.7c1.4-.1 2.6 1 2.6 2.4zM390.3 322.7c1.2-.7 2.7-.3 3.4.9l6.6 11.4c.7 1.2.3 2.7-.9 3.4-1.2.7-2.7.3-3.4-.9l-6.6-11.4c-.7-1.2-.3-2.7.9-3.4zM27 296.6c1.1-.9 2.6-.8 3.5.3L39 307c.9 1.1.8 2.6-.3 3.5-1.1.9-2.6.8-3.5-.3l-8.5-10.1c-.9-1-.8-2.6.3-3.5zM115.9 359.4c-.3-1.4.6-2.7 1.9-3l12.9-2.7c1.4-.3 2.7.6 3 1.9.3 1.4-.6 2.7-1.9 3l-12.9 2.7c-1.3.3-2.7-.5-3-1.9zM416.7 60.1c-.7 1.2-2.2 1.6-3.4.9l-11.4-6.6c-1.2-.7-1.6-2.2-.9-3.4.7-1.2 2.2-1.6 3.4-.9l11.4 6.6c1.2.7 1.6 2.2.9 3.4zM290.5 120.7c.7 1.2.4 2.7-.8 3.5l-11.1 7.1c-1.2.7-2.7.4-3.5-.8-.7-1.2-.4-2.7.8-3.5l11.1-7.1c1.2-.7 2.8-.4 3.5.8zM42.2 226c-1.3.5-2.7-.1-3.2-1.4l-4.8-12.3c-.5-1.3.1-2.7 1.4-3.2 1.3-.5 2.7.1 3.2 1.4l4.8 12.3c.5 1.3-.2 2.7-1.4 3.2zM384.3 138c-1 1-2.6 1-3.5 0l-9.3-9.3c-1-1-1-2.6 0-3.5 1-1 2.6-1 3.5 0l9.3 9.3c.9.9.9 2.5 0 3.5zM249 359.7c1.4-.3 2.7.6 3 1.9l2.7 12.9c.3 1.4-.6 2.7-1.9 3-1.4.3-2.7-.6-3-1.9l-2.7-12.9c-.3-1.4.5-2.8 1.9-3zM50.2 51.9c-.8 1.1-2.4 1.4-3.5.6L36 44.7c-1.1-.8-1.4-2.4-.6-3.5.8-1.1 2.4-1.4 3.5-.6l10.7 7.7c1.2.9 1.4 2.5.6 3.6zM188.3 51.4c-1.2-.7-1.6-2.2-.9-3.4l6.6-11.4c.7-1.2 2.2-1.6 3.4-.9 1.2.7 1.6 2.2.9 3.4l-6.6 11.4c-.7 1.2-2.2 1.6-3.4.9z" class="st2"/><path fill="#fff2f7" d="M427.4 20.2h-395c-2.2 0-4-1.8-4-4s1.8-4 4-4h395c2.2 0 4 1.8 4 4-.1 2.2-1.8 4-4 4z" opacity=".26"/><path d="M207.3 20.2h-38.1c-2.2 0-4-1.8-4-4s1.8-4 4-4h38.1c2.2 0 4 1.8 4 4s-1.8 4-4 4zM227.6 20.2H224c-2.2 0-4-1.8-4-4s1.8-4 4-4h3.6c2.2 0 4 1.8 4 4s-1.8 4-4 4z" class="st4"/><g><path fill="#cea338" d="M258.6-86.2c-6.1 0-11-4.9-11-11v-37c0-6.1 4.9-11 11-11h190c6.1 0 11 4.9 11 11v37c0 6.1-4.9 11-11 11h-190z"/><path d="M448.6-144.2c5.5 0 10 4.5 10 10v37c0 5.5-4.5 10-10 10h-190c-5.5 0-10-4.5-10-10v-37c0-5.5 4.5-10 10-10h190m0-2h-190c-6.6 0-12 5.4-12 12v37c0 6.6 5.4 12 12 12h190c6.6 0 12-5.4 12-12v-37c0-6.6-5.4-12-12-12z"/><path fill="#a88238" d="M448.6-95.2h-190c-5.5 0-10-4.5-10-10v8c0 5.5 4.5 10 10 10h190c5.5 0 10-4.5 10-10v-8c0 5.6-4.5 10-10 10z"/><text fill="#9b4600" font-family="AldotheApache" font-size="27" transform="translate(294.52 -110.303)">BACK TO MENU</text><path fill="none" stroke="#9b4600" stroke-miterlimit="10" stroke-width="4" d="M278.1-130.7l-11 11 11.5 11.5"/></g><g><path fill="#ffd65d" d="M14.6-86.2c-6.1 0-11-4.9-11-11v-37c0-6.1 4.9-11 11-11h190c6.1 0 11 4.9 11 11v37c0 6.1-4.9 11-11 11h-190z"/><path d="M204.6-144.2c5.5 0 10 4.5 10 10v37c0 5.5-4.5 10-10 10h-190c-5.5 0-10-4.5-10-10v-37c0-5.5 4.5-10 10-10h190m0-2h-190c-6.6 0-12 5.4-12 12v37c0 6.6 5.4 12 12 12h190c6.6 0 12-5.4 12-12v-37c0-6.6-5.4-12-12-12z"/><path fill="#cea849" d="M204.6-95.2h-190c-5.5 0-10-4.5-10-10v8c0 5.5 4.5 10 10 10h190c5.5 0 10-4.5 10-10v-8c0 5.6-4.5 10-10 10z"/><text fill="#bd5b00" font-family="AldotheApache" font-size="27" transform="translate(50.52 -110.303)">BACK TO MENU</text><path fill="none" stroke="#bd5b00" stroke-miterlimit="10" stroke-width="4" d="M34.1-130.7l-11 11 11.5 11.5"/></g></svg>