<?xml version="1.0" encoding="utf-8"?><svg xmlns="http://www.w3.org/2000/svg" id="Vrstva_1" x="0" y="0" version="1.1" viewBox="0 0 217.8 64.4" xml:space="preserve"><style>.st2{fill:#6e0d7f}.st4{opacity:.5;fill:#fff2f7}.st10{fill:#bd5b00}</style><path fill="#5b0068" d="M31.9 550.4c-11.6 0-21-9.4-21-21v-349c0-11.6 9.4-21 21-21h393.7c11.6 0 21 9.4 21 21v349c0 11.6-9.4 21-21 21H31.9z"/><path d="M425.6 160.4c11 0 20 9 20 20v349c0 11-9 20-20 20H31.9c-11 0-20-9-20-20v-349c0-11 9-20 20-20h393.7m0-2H31.9c-12.1 0-22 9.9-22 22v349c0 12.1 9.9 22 22 22h393.7c12.1 0 22-9.9 22-22v-349c0-12.1-9.9-22-22-22z"/><path fill="#41024c" d="M425.6 536.9H31.9c-11 0-20-9-20-20v12c0 11 9 20 20 20h393.7c11 0 20-9 20-20v-12c0 11.1-9 20-20 20z"/><path d="M217.2 292.5c1.1-.9 2.6-.8 3.5.3l8.5 10.1c.9 1.1.8 2.6-.3 3.5-1.1.9-2.6.8-3.5-.3l-8.5-10.1c-.9-1-.7-2.6.3-3.5zM144.4 406c.8 1.1.6 2.7-.5 3.5l-10.6 7.9c-1.1.8-2.7.6-3.5-.5-.8-1.1-.6-2.7.5-3.5l10.6-7.9c1.1-.8 2.7-.6 3.5.5zM97.2 290.6c1.3.3 2.2 1.7 1.8 3l-3 12.8c-.3 1.3-1.7 2.2-3 1.8-1.3-.3-2.2-1.7-1.8-3l3.1-12.8c.2-1.3 1.6-2.1 2.9-1.8zM421.7 350.6c1.2.7 1.6 2.2.9 3.4l-6.6 11.4c-.7 1.2-2.2 1.6-3.4.9-1.2-.7-1.6-2.2-.9-3.4l6.6-11.4c.6-1.2 2.2-1.6 3.4-.9zM304.2 399c.1 1.4-1 2.6-2.4 2.6l-13.2.7c-1.4.1-2.6-1-2.6-2.4-.1-1.4 1-2.6 2.4-2.6l13.2-.7c1.3-.1 2.5 1 2.6 2.4zM389.6 470.6c1.2-.7 2.7-.3 3.4.9l6.6 11.4c.7 1.2.3 2.7-.9 3.4-1.2.7-2.7.3-3.4-.9l-6.6-11.4c-.7-1.2-.3-2.8.9-3.4zM26.2 444.5c1.1-.9 2.6-.8 3.5.3l8.5 10.1c.9 1.1.8 2.6-.3 3.5-1.1.9-2.6.8-3.5-.3L25.9 448c-.9-1-.7-2.6.3-3.5zM115.2 507.3c-.3-1.4.6-2.7 1.9-3l12.9-2.7c1.4-.3 2.7.6 3 1.9.3 1.4-.6 2.7-1.9 3l-12.9 2.7c-1.4.3-2.7-.6-3-1.9zM416 208c-.7 1.2-2.2 1.6-3.4.9l-11.4-6.6c-1.2-.7-1.6-2.2-.9-3.4.7-1.2 2.2-1.6 3.4-.9l11.4 6.6c1.2.6 1.6 2.2.9 3.4zM289.8 268.5c.7 1.2.4 2.7-.8 3.5l-11.1 7.1c-1.2.7-2.7.4-3.5-.8-.7-1.2-.4-2.7.8-3.5l11.1-7.1c1.2-.7 2.7-.3 3.5.8zM41.4 373.9c-1.3.5-2.7-.1-3.2-1.4l-4.8-12.3c-.5-1.3.1-2.7 1.4-3.2 1.3-.5 2.7.1 3.2 1.4l4.8 12.3c.5 1.2-.1 2.7-1.4 3.2zM383.5 285.9c-1 1-2.6 1-3.5 0l-9.3-9.3c-1-1-1-2.6 0-3.5 1-1 2.6-1 3.5 0l9.3 9.3c1 .9 1 2.5 0 3.5zM248.2 507.5c1.4-.3 2.7.6 3 1.9l2.7 12.9c.3 1.4-.6 2.7-1.9 3-1.4.3-2.7-.6-3-1.9l-2.7-12.9c-.3-1.4.6-2.7 1.9-3zM49.5 199.8c-.8 1.1-2.4 1.4-3.5.6l-10.7-7.7c-1.1-.8-1.4-2.4-.6-3.5.8-1.1 2.4-1.4 3.5-.6l10.7 7.7c1.1.8 1.4 2.3.6 3.5zM187.6 199.3c-1.2-.7-1.6-2.2-.9-3.4l6.6-11.4c.7-1.2 2.2-1.6 3.4-.9 1.2.7 1.6 2.2.9 3.4l-6.6 11.4c-.7 1.2-2.2 1.6-3.4.9z" class="st2"/><path fill="#fff2f7" d="M426.6 168h-395c-2.2 0-4-1.8-4-4s1.8-4 4-4h395c2.2 0 4 1.8 4 4 0 2.3-1.8 4-4 4z" opacity=".26"/><path d="M206.6 168h-38.1c-2.2 0-4-1.8-4-4s1.8-4 4-4h38.1c2.2 0 4 1.8 4 4 0 2.3-1.8 4-4 4zM226.9 168h-3.6c-2.2 0-4-1.8-4-4s1.8-4 4-4h3.6c2.2 0 4 1.8 4 4 0 2.3-1.8 4-4 4z" class="st4"/><g><path fill="#cea338" d="M257.9 61.7c-6.1 0-11-4.9-11-11v-37c0-6.1 4.9-11 11-11h190c6.1 0 11 4.9 11 11v37c0 6.1-4.9 11-11 11h-190z"/><path d="M447.9 3.7c5.5 0 10 4.5 10 10v37c0 5.5-4.5 10-10 10h-190c-5.5 0-10-4.5-10-10v-37c0-5.5 4.5-10 10-10h190m0-2h-190c-6.6 0-12 5.4-12 12v37c0 6.6 5.4 12 12 12h190c6.6 0 12-5.4 12-12v-37c0-6.6-5.4-12-12-12z"/><path fill="#a88238" d="M447.9 52.7h-190c-5.5 0-10-4.5-10-10v8c0 5.5 4.5 10 10 10h190c5.5 0 10-4.5 10-10v-8c0 5.5-4.5 10-10 10z"/><text fill="#9b4600" font-family="AldotheApache" font-size="27" transform="translate(293.786 37.567)">BACK TO MENU</text><path fill="none" stroke="#9b4600" stroke-miterlimit="10" stroke-width="4" d="M277.4 17.2l-11 11 11.5 11.5"/></g><g><path fill="#ffd65d" d="M13.9 61.7c-6.1 0-11-4.9-11-11v-37c0-6.1 4.9-11 11-11h190c6.1 0 11 4.9 11 11v37c0 6.1-4.9 11-11 11h-190z"/><path d="M203.9 3.7c5.5 0 10 4.5 10 10v37c0 5.5-4.5 10-10 10h-190c-5.5 0-10-4.5-10-10v-37c0-5.5 4.5-10 10-10h190m0-2h-190c-6.6 0-12 5.4-12 12v37c0 6.6 5.4 12 12 12h190c6.6 0 12-5.4 12-12v-37c0-6.6-5.4-12-12-12z"/><path fill="#cea849" d="M203.9 52.7h-190c-5.5 0-10-4.5-10-10v8c0 5.5 4.5 10 10 10h190c5.5 0 10-4.5 10-10v-8c0 5.5-4.5 10-10 10z"/><path d="M62 29.6v7.9h-8.9l-2.6-2.6V18.5h8.2l2.7 2.5v5.2l-1.9 1.5 2.5 1.9zm-4.6-3.5v-3.9h-2.9v3.9h2.9zM58 34v-4.3h-3.6V34H58zM67.7 37.6h-4v-16l3.1-3h8.3v19.1h-4v-6.3h-3.4v6.2zm3.4-9.9v-5.6h-3.4v5.6h3.4zM84.1 34v-2.3h4V35l-2.6 2.6h-8.6V21.1l2.8-2.6h8.4v7.2h-4v-3.6h-3.2V34h3.2zM101.7 27v10.6h-4v-7h-4v7h-4V18.5h4V27h.3l3.7-8.5h4L98.1 27h3.6zM121.1 22.1h-3.6v15.4h-4V22.1h-3.7v-3.6h11.4v3.6zM122.7 18.5h11.5v19.1h-11.5V18.5zm4 15.5h3.5V22.1h-3.5V34zM152 18.5h4.6v19.1H153V25.7l-3 11.9h-1.2l-3-11.9v11.9h-3.7V18.5h4.6l2.6 9.5 2.7-9.5zM158.6 18.5h9.3v3.6h-5.3v3.7h5v3.6h-5V34h5.4v3.6h-9.4V18.5zM177.3 29.4V18.5h3.8v19.1h-4l-3.9-10.9v10.9h-3.7V18.5h4l3.8 10.9zM194.2 37.6h-11.3V18.5h4V34h3.3V18.5h4v19.1zM32.5 41.1L19.6 28.2 32 15.8l2.8 2.8-9.6 9.6 10.1 10.1z" class="st10"/></g></svg>