<?xml version="1.0" encoding="utf-8"?><svg xmlns="http://www.w3.org/2000/svg" viewBox="0 0 55.47 77.67"><defs><style>.cls-1,.cls-3{fill:#f4fcff;}.cls-2{fill:none;stroke:#f4fcff;stroke-miterlimit:10;}.cls-3{opacity:0.23;}</style></defs><title>change_region</title><g id="Vrstva_2" data-name="Vrstva 2"><g id="Vrstva_1-2" data-name="Vrstva 1"><path class="cls-1" d="M32.81,20.3c-.86-5.27-2.88-9-5.23-9s-4.38,3.71-5.23,9ZM21.9,26a35.37,35.37,0,0,0,.2,3.78H33.05a35.37,35.37,0,0,0,.2-3.78,35.37,35.37,0,0,0-.2-3.78H22.1A35.37,35.37,0,0,0,21.9,26ZM41.1,20.3a14.73,14.73,0,0,0-9.34-8.37,20,20,0,0,1,2.95,8.37ZM23.39,11.93a14.69,14.69,0,0,0-9.33,8.37h6.38a20,20,0,0,1,2.95-8.37ZM41.73,22.2H35c.12,1.24.19,2.51.19,3.78s-.07,2.54-.19,3.78h6.77A14.31,14.31,0,0,0,42.23,26a14.73,14.73,0,0,0-.5-3.78ZM20,26a36.37,36.37,0,0,1,.2-3.78H13.43a14.26,14.26,0,0,0,0,7.56H20.2C20.08,28.52,20,27.25,20,26Zm2.34,5.67c.85,5.28,2.88,9,5.23,9s4.37-3.71,5.23-9ZM31.76,40a14.68,14.68,0,0,0,9.34-8.37H34.72A19.82,19.82,0,0,1,31.76,40Zm-17.7-8.37A14.66,14.66,0,0,0,23.4,40a20,20,0,0,1-3-8.37Z"/><rect class="cls-2" x="0.5" y="0.5" width="54.47" height="76.67" rx="13.45"/><path class="cls-3" d="M41.52,71H14A13.45,13.45,0,0,1,.5,57.53v5.6A13.45,13.45,0,0,0,14,76.58H41.52A13.45,13.45,0,0,0,55,63.13v-5.6A13.45,13.45,0,0,1,41.52,71Z"/></g></g></svg>