<?xml version="1.0" encoding="utf-8"?><svg xmlns="http://www.w3.org/2000/svg" id="Vrstva_1" data-name="Vrstva 1" viewBox="0 0 129.96 92.3"><defs><style>.cls-2{fill:#f2f2f2}</style></defs><path fill="#b3b3b3" d="M129 58.25V26.77a21 21 0 0 0-20.93-20.89H21.89A21 21 0 0 0 1 26.77v31.48a21 21 0 0 0 20.89 20.89h81.54C107 90 121.38 92.17 124.12 91v-4.85a25.58 25.58 0 0 1-4.47-10.54A20.91 20.91 0 0 0 129 58.25z"/><path d="M119.34 68.22a27 27 0 0 0 4.78 17.93C121 87.47 102.25 84.4 102.6 68.5c8.08-.13 13.06-.28 16.74-.28z" class="cls-2"/><rect width="127.96" height="73.27" x="1" y="1" class="cls-2" rx="20.89"/><path d="M108.07 1A21 21 0 0 1 129 21.89v36.36a20.91 20.91 0 0 1-9.31 17.36 25.58 25.58 0 0 0 4.47 10.54V91a5.82 5.82 0 0 1-2 .27c-4.89 0-15.62-3-18.68-12.16H21.89A21 21 0 0 1 1 58.25V21.89A21 21 0 0 1 21.89 1h86.18m0-1H21.89A21.92 21.92 0 0 0 0 21.89v36.36a21.92 21.92 0 0 0 21.89 21.89h80.84c3.38 8.86 13.59 12.16 19.38 12.16a6.52 6.52 0 0 0 2.39-.3l.62-.26v-5.93l-.21-.27a24.86 24.86 0 0 1-4.17-9.47A21.87 21.87 0 0 0 130 58.25V21.89A21.92 21.92 0 0 0 108.07 0z"/><circle cx="49.45" cy="37.43" r="5.87"/><circle cx="66.78" cy="37.43" r="5.87"/><circle cx="84.43" cy="37.43" r="5.87"/><path d="M118.15 65.61l.26 8.85-12.26 2.17-3.03-7.22 15.03-3.8z" class="cls-2"/></svg>