<?xml version="1.0" encoding="utf-8"?><svg xmlns="http://www.w3.org/2000/svg" id="Vrstva_1" data-name="Vrstva 1" viewBox="0 0 19.44 81.88"><defs><style>.cls-1{fill:#3a3a3a}.cls-2{fill:#030014}</style></defs><path d="M0 .02h1.11v72.19H0zM18.23.02h1.11v72.56h-1.11z" class="cls-1"/><path d="M9.78 0h8.47v8.1H9.78zM1.11 7.95h8.67v8.1H1.11zM9.78 16.05h8.47v8.1H9.78zM1.11 24h8.67v8.1H1.11zM9.78 32.24h8.47v8.1H9.78zM1.11 40.2h8.67v8.1H1.11zM9.78 48.29h8.47v8.1H9.78zM1.11 56.24h8.67v8.1H1.11zM9.78 64.49h8.47v8.1H9.78z" class="cls-1"/><path d="M0 77v4.62h1.11V77zM18.23 76.91v5h1.11v-5z" class="cls-2"/><path d="M9.78 76.99h8.47v4.89H9.78zM19.44 72.31v4.62h-1.11V72.3zM1.22 72.18v5H.11v-5z" class="cls-2"/><path d="M1.2 72.27h8.47v4.89H1.2z" class="cls-2" transform="rotate(-180 5.43 74.71)"/></svg>