<?xml version="1.0" encoding="utf-8"?><svg xmlns="http://www.w3.org/2000/svg" viewBox="0 0 191.07 81.74"><defs><style>.cls-1{isolation:isolate;}.cls-2{fill:#fffd6d;}.cls-3{fill:#8e7700;}.cls-4{fill:#d8ce00;}.cls-5{fill:#ff1623;}.cls-6{fill:#ffef52;}.cls-7{fill:#fff2f7;mix-blend-mode:overlay;}</style></defs><title>friends_offline</title><g class="cls-1"><g id="Vrstva_2" data-name="Vrstva 2"><g id="Vrstva_1-2" data-name="Vrstva 1"><path class="cls-2" d="M45.84,77.36a28,28,0,0,1,0-56H162.58a28,28,0,0,1,0,56Z"/><path d="M162.58,21.87a27.5,27.5,0,0,1,0,55H45.84a27.5,27.5,0,0,1,0-55H162.58m0-1H45.84a28.5,28.5,0,0,0,0,57H162.58a28.5,28.5,0,0,0,0-57Z"/><path class="cls-3" d="M81.23,47.24V54H77.92V40.43l2.18-2.18h5.36v3H81.23v3h3.91v3Z"/><path class="cls-3" d="M93,54l-2-5.71h-.87V54H86.84V40.47l2.4-2.22H96v10H94.21L96.3,54Zm-.29-8.67V41.25H90.15v4.11Z"/><path class="cls-3" d="M103,51v3H97.52V51h1.1v-9.8h-1.1v-3H103v3h-1.09V51Z"/><path class="cls-3" d="M104.43,38.25h7.67v3h-4.39v3h4.17v3h-4.13V51h4.46v3h-7.78Z"/><path class="cls-3" d="M119.9,47.31V38.25H123V54h-3.27L116.52,45V54h-3.1V38.25h3.27Z"/><path class="cls-3" d="M124.57,38.25h6.79l2.54,2.5v11.1L131.69,54h-7.12Zm6,12.79V41.25h-2.71V51Z"/><path class="cls-3" d="M143.9,54h-8.68V49.12h3.31V51h2.05V48.53l-5.25-4V38.25h8.47v4.69h-3V41.26h-2.16v2.06l5.26,4Z"/><path class="cls-4" d="M162.58,70.79H45.84A27.49,27.49,0,0,1,18.52,46.33a27.73,27.73,0,0,0-.17,3h0A27.49,27.49,0,0,0,45.84,76.86H162.58a27.49,27.49,0,0,0,27.49-27.49h0a27.73,27.73,0,0,0-.17-3A27.49,27.49,0,0,1,162.58,70.79Z"/><path class="cls-5" d="M166.3,53.27a7.2,7.2,0,1,1,7.19-7.2A7.2,7.2,0,0,1,166.3,53.27Z"/><path d="M166.3,39.38a6.7,6.7,0,1,1-6.69,6.69,6.7,6.7,0,0,1,6.69-6.69m0-1A7.7,7.7,0,1,0,174,46.07a7.7,7.7,0,0,0-7.69-7.69Z"/><path class="cls-6" d="M32.79,81a32,32,0,1,1,32-32A32.07,32.07,0,0,1,32.79,81Z"/><path d="M32.79,17.67A31.29,31.29,0,1,1,1.5,49,31.29,31.29,0,0,1,32.79,17.67m0-1.5A32.79,32.79,0,1,0,65.57,49,32.83,32.83,0,0,0,32.79,16.17Z"/><path class="cls-4" d="M32.79,74A31.28,31.28,0,0,1,1.66,45.84,29.09,29.09,0,0,0,1.5,49a31.29,31.29,0,0,0,62.57,0q0-1.59-.15-3.12A31.29,31.29,0,0,1,32.79,74Z"/><path d="M49.38,34.85a6.89,6.89,0,0,1,3.86,1.21,1.49,1.49,0,1,1-1.66,2.47,3.74,3.74,0,0,0-4.36,0A1.51,1.51,0,0,1,45,38.18,1.53,1.53,0,0,1,45.61,36,6.62,6.62,0,0,1,49.38,34.85Z"/><path d="M36.69,34.85a6.89,6.89,0,0,1,3.86,1.21,1.5,1.5,0,1,1-1.67,2.47,3.72,3.72,0,0,0-4.35,0,1.51,1.51,0,0,1-2.24-.33A1.53,1.53,0,0,1,32.92,36,6.62,6.62,0,0,1,36.69,34.85Z"/><path d="M44.75,46.33A2.73,2.73,0,0,1,42,43.53a2.79,2.79,0,0,1,2.79-2.75,2.83,2.83,0,0,1,2.76,2.79A2.77,2.77,0,0,1,44.75,46.33Z"/><circle class="cls-7" cx="48.29" cy="24.96" r="3.09"/><rect class="cls-2" x="64.07" width="14" height="5.6" rx="2.8"/><rect class="cls-2" x="64.07" y="8.85" width="14" height="5.6" rx="2.8"/><rect class="cls-2" x="62.5" y="4.72" width="16.98" height="5.6" rx="2.8" transform="translate(15.48 52.4) rotate(-45)"/><rect class="cls-2" x="50.65" y="8.78" width="9.65" height="3.86" rx="1.93"/><rect class="cls-2" x="50.65" y="14.89" width="9.65" height="3.86" rx="1.93"/><rect class="cls-2" x="49.56" y="12.04" width="11.71" height="3.86" rx="1.93" transform="translate(6.35 43.28) rotate(-45)"/></g></g></g></svg>