<?xml version="1.0" encoding="utf-8"?>
<!-- Generator: Adobe Illustrator 23.0.6, SVG Export Plug-In . SVG Version: 6.00 Build 0)  -->
<svg version="1.1" id="Layer_1" xmlns="http://www.w3.org/2000/svg" xmlns:xlink="http://www.w3.org/1999/xlink" x="0px" y="0px"
	 viewBox="0 0 32 32" style="enable-background:new 0 0 32 32;" xml:space="preserve">
<style type="text/css">
	.st0{fill:#5E007D;}
	.st1{clip-path:url(#SVGID_2_);}
	.st2{fill:url(#Path_13857_1_);}
	.st3{fill:url(#Path_13856_1_);}
	.st4{fill:url(#Path_13858_1_);}
	.st5{fill:url(#Path_13859_1_);}
	.st6{fill:url(#Path_13860_1_);}
	.st7{fill:url(#Path_13861_1_);}
	.st8{fill:url(#Path_13862_1_);}
	.st9{fill:url(#shine_1_);}
	.st10{fill:url(#shine_2_1_);}
</style>
<g id="icnGem">
	<path id="Stroke" class="st0" d="M18.9,3.7h-5.7H13l-0.6,0.1L11.7,4h-0.2L6.2,6.1C6.1,6.2,5.9,6.3,5.8,6.5L3,10.2
		c-0.7,1-0.7,2.3,0,3.2l11,13.9c0.9,1.1,2.5,1.3,3.6,0.4c0.1-0.1,0.3-0.2,0.4-0.4l10.9-13.9c0.7-1,0.7-2.3,0-3.2l-2.7-3.7
		c-0.1-0.1-0.3-0.3-0.4-0.3L20.5,4l-0.2,0l-0.6-0.1L19,3.8L18.9,3.7L18.9,3.7z"/>
	<g id="Gem">
		<g>
			<defs>
				<path id="SVGID_1_" d="M25.4,7.1L25.4,7.1L20.1,5l-1.3-0.2h-5.7L11.9,5L6.6,7.1l0,0l-2.8,3.7c-0.5,0.6-0.5,1.4,0,2l10.9,13.9
					c0.5,0.7,1.5,0.8,2.2,0.3c0.1-0.1,0.2-0.2,0.3-0.3l10.9-13.9c0.5-0.6,0.5-1.4,0-2L25.4,7.1z"/>
			</defs>
			<clipPath id="SVGID_2_">
				<use xlink:href="#SVGID_1_"  style="overflow:visible;"/>
			</clipPath>
			<g class="st1">
				<g id="Gem-2">
					
						<linearGradient id="Path_13857_1_" gradientUnits="userSpaceOnUse" x1="15.4191" y1="5.3608" x2="27.5791" y2="19.4408" gradientTransform="matrix(1 0 0 -1 0 31.89)">
						<stop  offset="0" style="stop-color:#E33078"/>
						<stop  offset="1" style="stop-color:#960028"/>
					</linearGradient>
					<path id="Path_13857" class="st2" d="M23,15.3L23,15.3c0,0-3.2,5.4-5.6,9.1c-0.9,1.4-0.5,1.8-3.2,2.4c-1.4,0.3,1.7,1.4,1.7,1.4
						l12.9-16.5L23,15.3z"/>
					
						<linearGradient id="Path_13856_1_" gradientUnits="userSpaceOnUse" x1="-426.4955" y1="784.8293" x2="-425.7255" y2="785.9293" gradientTransform="matrix(11 0 0 14 4701.8501 -10978.7598)">
						<stop  offset="0" style="stop-color:#AD0584"/>
						<stop  offset="1" style="stop-color:#FF99DB"/>
					</linearGradient>
					<path id="Path_13856" class="st3" d="M9,15.3l-6-3.5l12.9,17.3l7.2-13.6L9,15.3z"/>
					
						<linearGradient id="Path_13858_1_" gradientUnits="userSpaceOnUse" x1="-430.3918" y1="810.4888" x2="-430.0118" y2="809.5288" gradientTransform="matrix(12 0 0 11 5176.8501 -8891.0898)">
						<stop  offset="0" style="stop-color:#FFD1E5"/>
						<stop  offset="1" style="stop-color:#E8006D"/>
					</linearGradient>
					<path id="Path_13858" class="st4" d="M23,15.3H9l6.3,10.4c0.2,0.4,0.7,0.5,1.1,0.3c0.1-0.1,0.2-0.2,0.3-0.3L23,15.3z"/>
					
						<linearGradient id="Path_13859_1_" gradientUnits="userSpaceOnUse" x1="-440.0936" y1="1010.1689" x2="-439.7136" y2="1011.4689" gradientTransform="matrix(16 0 0 4 7054.8501 -4035.8601)">
						<stop  offset="0" style="stop-color:#FF59B4"/>
						<stop  offset="1" style="stop-color:#FFFFFF"/>
					</linearGradient>
					<path id="Path_13859" class="st5" d="M12.5,9.4h7.1l5.9-2.4l0,0l-5.9-2.3h-7.1L6.6,7.1l0,0L12.5,9.4z"/>
					
						<linearGradient id="Path_13860_1_" gradientUnits="userSpaceOnUse" x1="-430.3836" y1="947.3501" x2="-429.9436" y2="948.5901" gradientTransform="matrix(12 0 0 5 5176.8501 -4726.75)">
						<stop  offset="0" style="stop-color:#FF299D"/>
						<stop  offset="1" style="stop-color:#FFFFFF"/>
					</linearGradient>
					<path id="Path_13860" class="st6" d="M19.5,9.4h-7.1L9,15.3h14.1L19.5,9.4z"/>
					
						<linearGradient id="Path_13861_1_" gradientUnits="userSpaceOnUse" x1="19.53" y1="20.695" x2="28.93" y2="20.695" gradientTransform="matrix(1 0 0 -1 0 31.89)">
						<stop  offset="0" style="stop-color:#FF006F"/>
						<stop  offset="1" style="stop-color:#FFE5F9"/>
					</linearGradient>
					<path id="Path_13861" class="st7" d="M19.5,9.4l5.9-2.4l3.5,4.7L23,15.3L19.5,9.4z"/>
					
						<linearGradient id="Path_13862_1_" gradientUnits="userSpaceOnUse" x1="-409.9951" y1="875.4967" x2="-410.8551" y2="875.7967" gradientTransform="matrix(8 0 0 7 3291.8501 -6118.5303)">
						<stop  offset="0" style="stop-color:#FF4B60"/>
						<stop  offset="1" style="stop-color:#FFBFF5"/>
					</linearGradient>
					<path id="Path_13862" class="st8" d="M12.5,9.4L6.6,7.1l-3.5,4.7L9,15.3L12.5,9.4z"/>
				</g>
				
					<radialGradient id="shine_1_" cx="-441.0458" cy="437.9536" r="1.57" gradientTransform="matrix(-11.17 8.69 -3.07 -3.95 -3559.7778 5578.2554)" gradientUnits="userSpaceOnUse">
					<stop  offset="0.22" style="stop-color:#FFF4FE"/>
					<stop  offset="1" style="stop-color:#FFFFFF;stop-opacity:0"/>
				</radialGradient>
				<path id="shine" class="st9" d="M21.5,15.9L10,15.3l11.4-0.8l-1.7-4.7l3.2,4.4l5.1-1.8l-4.9,3.2l-5.8,11L21.5,15.9z"/>
				
					<radialGradient id="shine_2_1_" cx="12.49" cy="20.22" r="8.64" gradientTransform="matrix(1 0 0 -1 0 31.89)" gradientUnits="userSpaceOnUse">
					<stop  offset="0.22" style="stop-color:#FFF4FE"/>
					<stop  offset="1" style="stop-color:#FFFFFF;stop-opacity:0"/>
				</radialGradient>
				<polygon id="shine_2" class="st10" points="7.8,7.5 11.3,9.8 8.9,15.3 12.5,10.1 19.5,9.4 12.5,8.9 				"/>
			</g>
		</g>
	</g>
</g>
</svg>
