<?xml version="1.0" encoding="utf-8"?><svg xmlns="http://www.w3.org/2000/svg" id="Vrstva_1" x="0" y="0" version="1.1" viewBox="0 0 23.09 23.09" xml:space="preserve"><style>.st57{fill:#8e7700}</style><switch><g><path d="M1.54 23.09c-.32-.2-.53-.44-.53-.86.01-2.74.01-5.47.01-8.21 0-.08.02-.17.02-.23.56.09 1.12.26 1.66.24.6-.02 1.19-.24 1.79-.34.24-.04.53-.08.75.01 1.24.49 2.47.5 3.67-.07.28-.13.48-.12.75 0 1.27.59 2.54.56 3.81 0 .18-.08.46-.08.64 0 1.26.55 2.51.58 3.77.04.17-.07.41-.11.56-.04 1.11.5 2.24.57 3.39.15.06-.02.13-.02.24-.03V15c0 2.36-.01 4.72.01 7.08 0 .46-.13.79-.53 1.01H1.54zm6.25-7.53c-.96 0-1.91-.01-2.87 0-.63.01-.9.29-.91.91-.01.91-.01 1.82 0 2.72 0 .62.29.91.92.91 1.9.01 3.8.01 5.69 0 .65 0 .94-.3.95-.95.01-.85.01-1.71 0-2.56-.01-.76-.26-1.02-1.01-1.03H7.79zm11.29 6c0-1.8.02-3.55-.01-5.3-.01-.46-.35-.69-.8-.69-.96-.01-1.91-.02-2.87 0-.59.01-.83.27-.84.86-.01 1.01 0 2.01 0 3.02v2.11h4.52zM0 9.03h23.02c.25 1.3-.23 2.47-1.24 3.1-1.11.68-2.25.53-3.55-.49-.63.59-1.36.92-2.24.9-.87-.01-1.57-.4-2.17-.98-1.41 1.35-3.22 1.27-4.53 0-.61.57-1.3.96-2.17.98-.87.01-1.6-.29-2.26-.92-.57.53-1.21.91-2.03.92C1.56 12.55.5 11.8.12 10.6c-.04-.12-.08-.23-.12-.33V9.03zM0 6.57c.35-.68.7-1.36 1.06-2.05h.57c6.62 0 13.23.01 19.85-.01.45 0 .67.13.83.54.18.46.45.88.66 1.33.29.63-.03 1.14-.73 1.14-7.13 0-14.26 0-21.39.01C.43 7.52.19 7.3 0 6.98v-.41zM1.53 2.96c0-.65-.02-1.26.01-1.87.03-.57.51-1 1.13-1.07.15-.03.31-.02.46-.02h16.83c1.19 0 1.61.41 1.61 1.6v1.36H1.53z" class="st57"/></g></switch></svg>