<?xml version="1.0" encoding="utf-8"?><svg xmlns="http://www.w3.org/2000/svg" id="Vrstva_1" x="0" y="0" version="1.1" viewBox="0 0 27.24 27.2" xml:space="preserve"><style>.st57{fill:#8e7700}</style><switch><g><path d="M.01 18.23v-7.92c0-.11-.03-.23.02-.32.06-.11.16-.26.27-.28.11-.02.28.07.36.17.1.11.13.28.18.43.6 1.63 1.2 3.27 1.81 4.9.16.43.42.62.81.56.15-.02.3-.1.42-.18.29-.2.55-.43.83-.65.19-.15.4-.2.62-.08.21.12.28.31.26.54l-.27 4.61c-.02.29-.04.58-.05.88-.02.65.37 1.06 1.02 1.03 1.29-.06 2.59-.14 3.88-.21l1.6-.09c.23-.01.43.06.54.27.12.22.07.43-.08.62l-.56.71c-.48.61-.34 1.11.38 1.38 1.65.61 3.3 1.21 4.95 1.82.23.09.53.15.46.49-.07.34-.36.29-.62.29H1.09c-.81 0-1.11-.29-1.11-1.11.03-2.62.03-5.24.03-7.86z" class="st57"/><path d="M20.24 11.9c-.1.16-.16.33-.27.43-3.06 2.77-6.27 5.35-10 7.19-.92.45-1.9.78-2.87 1.15-.14.05-.37.02-.51-.06-.19-.11-.14-.33-.09-.53.5-1.7 1.29-3.27 2.19-4.79 1.73-2.91 3.84-5.53 6.11-8.03.31-.34.61-.35.93-.03.38.37.76.76 1.14 1.14.27.27.26.38.01.66-1.3 1.4-2.62 2.78-3.87 4.21-.81.93-1.53 1.94-2.28 2.92-.07.09-.06.25-.08.38.13-.03.29-.01.38-.08 2.52-1.81 4.84-3.85 7.03-6.05.4-.41.45-.4.86.01.34.34.7.68 1.03 1.04.12.11.18.27.29.44zM18.85 5.85c.83-.83 1.61-1.61 2.39-2.4.34-.34.53-.34.88.01.54.54 1.08 1.07 1.62 1.61.32.32.32.54-.01.86-.78.78-1.57 1.57-2.41 2.4.27.25.53.47.77.72.42.41.41.79 0 1.21-.12.12-.23.24-.35.35-.27.26-.48.27-.75 0l-1.8-1.8-2.58-2.58c-.32-.32-.32-.52 0-.84.13-.13.26-.27.39-.39.33-.31.71-.32 1.04 0 .27.27.52.55.81.85zM27.24 2.81c-.14.27-.25.56-.44.79-.26.32-.58.6-.88.89-.26.25-.45.25-.7-.01-.85-.84-1.69-1.69-2.54-2.54-.25-.25-.24-.44.01-.7.28-.28.56-.57.85-.85.54-.52 1.2-.54 1.74-.02.52.5 1.02 1.01 1.53 1.53.24.24.37.52.36.86.02.02.05.04.07.05zM15.92 22.73c-.67-.05-1.14-.42-1.61-.78-.08-.06-.13-.3-.08-.39a.64.64 0 0 1 .39-.29c.49-.11.99-.17 1.49-.25.57-.09 1.15-.18 1.72-.28.25-.04.48-.02.58.25.1.26-.05.42-.26.55-.45.28-.88.58-1.34.83-.26.16-.58.25-.89.36zM6.48 9.09c-.15.9-.27 1.7-.4 2.5l-.15.95c-.03.2-.11.38-.33.43-.22.05-.37-.06-.48-.24-.13-.21-.27-.41-.38-.62-.28-.53-.3-1.07-.01-1.59.3-.53.64-1.04.97-1.56.12-.21.3-.3.5-.2.13.08.22.25.28.33z" class="st57"/></g></switch></svg>