<?xml version="1.0" encoding="utf-8"?><svg xmlns="http://www.w3.org/2000/svg" id="Vrstva_1" x="0" y="0" version="1.1" viewBox="0 0 32.9 26.18" xml:space="preserve"><style>.st59{fill:#604e00}</style><switch><g><path d="M16.45 5.28L4.72 14.96c0 .01 0 .03-.01.06-.01.02-.01.04-.01.06v9.79c0 .35.13.66.39.92s.56.39.92.39h7.83v-7.84h5.22v7.84h7.83c.35 0 .66-.13.92-.39s.39-.56.39-.92v-9.79c0-.05-.01-.1-.02-.12L16.45 5.28z" class="st59"/><path d="M32.67 12.75L28.2 9.04V.71a.64.64 0 0 0-.18-.47.64.64 0 0 0-.47-.18h-3.92a.64.64 0 0 0-.47.18.64.64 0 0 0-.18.47v3.98L18 .53C17.56.18 17.05 0 16.45 0c-.6 0-1.12.18-1.55.53L.23 12.75c-.14.11-.21.26-.23.44-.01.18.03.34.14.48l1.27 1.51c.11.12.25.2.43.22.16.01.33-.03.49-.14L16.45 3.49l14.12 11.77c.11.09.25.14.43.14h.06c.18-.03.32-.1.43-.22l1.27-1.51c.11-.14.16-.3.14-.48a.618.618 0 0 0-.23-.44z" class="st59"/></g></switch></svg>