<?xml version="1.0" encoding="utf-8"?><svg xmlns="http://www.w3.org/2000/svg" id="Vrstva_1" x="0" y="0" version="1.1" viewBox="0 0 27.2 27.2" xml:space="preserve"><style>.st57{fill:#8e7700}</style><switch><g><path d="M11.58 27.18c-1.95 0-3.89.05-5.84-.01C2.97 27.07.47 24.8.1 22.05-.04 21 0 19.93 0 18.87c-.01-2.83 0-5.66 0-8.49 0-3.25 2.16-5.79 5.37-6.29.24-.04.48-.05.72-.05 2.2 0 4.4-.01 6.6 0 .66 0 1.05.51.85 1.08-.12.35-.41.53-.84.53-1.84 0-3.68-.01-5.52.01-.66.01-1.33 0-1.98.12-2.04.41-3.57 2.27-3.58 4.35-.02 3.66-.02 7.32 0 10.98.01 2.4 2.01 4.43 4.43 4.46 3.68.04 7.36.04 11.05 0 2.47-.02 4.44-2.09 4.45-4.57.01-2.18 0-4.36 0-6.53 0-.67.64-1.07 1.2-.75.31.17.41.46.41.8v6.41c-.01 3.21-2.23 5.77-5.4 6.23-.29.04-.59.05-.88.05h-5.3v-.03zM23.16 5.65v.39c0 .95.01 1.89-.01 2.84-.01.44-.3.76-.7.8-.4.05-.77-.19-.87-.57-.03-.11-.03-.24-.03-.37V6.03v-.38h-3.17c-.51 0-.87-.33-.87-.79 0-.47.33-.81.85-.81.94-.01 1.87 0 2.81 0h.36c.01-.12.02-.21.02-.3V.88c0-.52.33-.86.8-.86.47 0 .8.34.81.86.01.89 0 1.79 0 2.68v.48c.13.01.24.02.35.02h2.81c.45 0 .75.21.85.57.15.53-.21 1.03-.78 1.04-.92.01-1.85 0-2.78 0-.13-.02-.26-.02-.45-.02z" class="st57"/></g></switch></svg>