<?xml version="1.0" encoding="utf-8"?><svg xmlns="http://www.w3.org/2000/svg" id="Vrstva_1" x="0" y="0" version="1.1" viewBox="0 0 42.15 53.72" xml:space="preserve"><style></style><switch><g><path fill="#8410c1" d="M40.73 46.89l-19.7 6.83-19.7-6.83V10.08h39.4z"/><path fill="#ffe62e" d="M40.73 41.01l-19.7 6.83-19.7-6.83V4.19h39.4z"/><path fill="#ce9800" d="M1.33 38.15v2.86l19.7 6.83 19.7-6.83v-2.86l-19.7 6.83z"/><path fill="#e94e00" d="M.25.25H41.9v8.26H.25z"/><path fill="#cf4000" d="M.25 7.25H41.9v1.26H.25z"/><path fill="none" stroke="#d17b00" stroke-miterlimit="10" stroke-width=".5" d="M39.04 36.9L21.03 43 3.02 36.9V10.47h36.02z"/><path fill="none" stroke="#60005f" stroke-miterlimit="10" stroke-width=".5" d="M.25.25v8.26h1.08v32.5h0l6.48 2.24 13.22 4.59 13.22-4.59 6.48-2.24V8.51h1.17V.25z"/></g></switch></svg>