<?xml version="1.0" encoding="utf-8"?><svg xmlns="http://www.w3.org/2000/svg" viewBox="0 0 322.9 414.51"><defs><style>.cls-1{fill:#5b0068;}.cls-2{fill:#41024c;}.cls-3{fill:#6e0d7f;}</style></defs><title>region_bg</title><g id="Vrstva_2" data-name="Vrstva 2"><g id="Vrstva_1-2" data-name="Vrstva 1"><rect class="cls-1" x="1" y="1" width="320.9" height="412.51" rx="21"/><path d="M300.9,2a20,20,0,0,1,20,20V392.51a20,20,0,0,1-20,20H22a20,20,0,0,1-20-20V22A20,20,0,0,1,22,2H300.9m0-2H22A22,22,0,0,0,0,22V392.51a22,22,0,0,0,22,22H300.9a22,22,0,0,0,22-22V22a22,22,0,0,0-22-22Z"/><path class="cls-2" d="M300.86,400.53H22a20,20,0,0,1-20-20v12a20,20,0,0,0,20,20H300.86a20,20,0,0,0,20-20v-12A20,20,0,0,1,300.86,400.53Z"/><rect class="cls-3" x="16.02" y="97.46" width="18.18" height="5" rx="2.5" transform="translate(-74.01 71.72) rotate(-60)"/><rect class="cls-3" x="61.31" y="231.96" width="5" height="18.18" rx="2.5" transform="translate(-185.49 235.67) rotate(-73.94)"/><rect class="cls-3" x="301.31" y="154.96" width="5" height="18.18" rx="2.5" transform="translate(-33.05 88.29) rotate(-15.69)"/><rect class="cls-3" x="151.18" y="125.3" width="5" height="18.18" rx="2.5" transform="translate(-46.61 94.84) rotate(-30)"/><rect class="cls-3" x="242.31" y="75.47" width="18.18" height="5" rx="2.5" transform="translate(45 241.31) rotate(-55.59)"/><rect class="cls-3" x="206.49" y="166.88" width="18.18" height="5" rx="2.5" transform="translate(-8.43 11.32) rotate(-2.95)"/><rect class="cls-3" x="125.29" y="195.33" width="5" height="18.18" rx="2.5" transform="translate(-109.77 163.42) rotate(-48.2)"/><rect class="cls-3" x="42.34" y="294.78" width="18.18" height="5" rx="2.5" transform="translate(-114.4 45.25) rotate(-23.53)"/><rect class="cls-3" x="125.01" y="297.69" width="18.18" height="5" rx="2.5" transform="translate(-186.47 373.2) rotate(-78.76)"/><rect class="cls-3" x="212.71" y="231.34" width="18.18" height="5" rx="2.5" transform="translate(-74.91 107.99) rotate(-23.53)"/><rect class="cls-3" x="235.33" y="290.18" width="5" height="18.18" rx="2.5" transform="translate(-115.56 445.01) rotate(-73.94)"/><rect class="cls-3" x="72.3" y="341.85" width="5" height="18.18" rx="2.5" transform="matrix(0.92, -0.4, 0.4, 0.92, -133.88, 59.04)"/><rect class="cls-3" x="196.76" y="340.9" width="5" height="18.18" rx="2.5" transform="translate(-123.16 108.64) rotate(-23.53)"/><rect class="cls-3" x="284.14" y="371.81" width="18.18" height="5" rx="2.5" transform="translate(-168.25 259.75) rotate(-37.98)"/><rect class="cls-3" x="301.31" y="244.96" width="5" height="18.18" rx="2.5" transform="translate(26.84 537.12) rotate(-85.53)"/><rect class="cls-3" x="67.31" y="139.96" width="5" height="18.18" rx="2.5" transform="translate(-53.7 40.26) rotate(-23.53)"/><rect class="cls-3" x="21.38" y="16.89" width="5" height="18.18" rx="2.5" transform="translate(-5.33 45.77) rotate(-81.52)"/><rect class="cls-3" x="91.72" y="63.55" width="18.18" height="5" rx="2.5" transform="translate(-3.27 5.28) rotate(-2.95)"/><rect class="cls-3" x="158.12" y="13.83" width="5" height="18.18" rx="2.5" transform="translate(10.06 83.38) rotate(-30)"/></g></g></svg>
