<?xml version="1.0" encoding="utf-8"?><svg xmlns="http://www.w3.org/2000/svg" id="Vrstva_1" x="0" y="0" version="1.1" viewBox="0 0 22.25 25" xml:space="preserve"><style></style><switch><g><path fill="#fff" d="M6.64 7.61c0-1.06-.02-2.08 0-3.1.04-1.78.81-3.14 2.38-3.99 2.96-1.58 6.55.57 6.57 3.93.01.92 0 1.85 0 2.77v.37h3.73c1.47 0 2.77 1.19 2.89 2.65.01.12.02.25.02.37v11.31c0 1.51-.95 2.69-2.38 2.97-.23.05-.47.06-.71.06-5.34.04-10.69.05-16.04.05C1.28 25 0 23.73 0 21.9V10.68c0-1.82 1.27-3.07 3.08-3.07 1.07 0 2.14 0 3.21.01.11-.01.21-.01.35-.01zm7.02-.01c.01-.12.01-.22.01-.32V4.54c0-1.47-1.1-2.57-2.55-2.57-1.44 0-2.53 1.09-2.54 2.54-.01.93 0 1.87 0 2.8 0 .09.01.18.02.28 1.68.01 3.36.01 5.06.01zM9.99 18.04v1.12c.01.72.46 1.21 1.13 1.21.67 0 1.13-.49 1.13-1.21 0-.76.01-1.52 0-2.27 0-.23.06-.37.25-.51.83-.59 1.15-1.64.82-2.6a2.335 2.335 0 0 0-2.2-1.58c-.99 0-1.88.64-2.2 1.58-.32.95-.01 1.99.8 2.59.21.15.3.3.28.56-.03.36-.01.74-.01 1.11z"/></g></switch></svg>