<svg xmlns="http://www.w3.org/2000/svg" viewBox="0 0 473.24 127.61"><defs><style>.a{fill:#ad00b5;}</style></defs><title>violet_kill_tab</title><path class="a" d="M467.42,5.18h0a2.15,2.15,0,0,1,2.66,1.51l3.08,11.11a2.2,2.2,0,0,1-1.5,2.7h0A2.16,2.16,0,0,1,469,19L465.92,7.87A2.19,2.19,0,0,1,467.42,5.18Z"/><path class="a" d="M8.93,70.85h0a2.22,2.22,0,0,1,.79,3L4,83.83a2.15,2.15,0,0,1-2.95.81h0a2.21,2.21,0,0,1-.79-3L6,71.66A2.15,2.15,0,0,1,8.93,70.85Z"/><path class="a" d="M92,106.79h0a2.14,2.14,0,0,1,2.67-1.49l10.93,3.19a2.19,2.19,0,0,1,1.48,2.71h0a2.15,2.15,0,0,1-2.67,1.49L93.48,109.5A2.19,2.19,0,0,1,92,106.79Z"/><path class="a" d="M453.82,72.21h0a2.14,2.14,0,0,1,2.42-1.86l11.44,1.47a2.18,2.18,0,0,1,1.9,2.42h0a2.15,2.15,0,0,1-2.43,1.87l-11.43-1.47A2.19,2.19,0,0,1,453.82,72.21Z"/><path class="a" d="M400.11,114.8h0a2.16,2.16,0,0,1,2.32-2l11.34.9a2.18,2.18,0,0,1,2,2.35h0a2.18,2.18,0,0,1-2.32,2l-11.35-.9A2.17,2.17,0,0,1,400.11,114.8Z"/><path class="a" d="M160.34,10.88h0A2.14,2.14,0,0,1,163.18,12l4.54,10.58a2.2,2.2,0,0,1-1.12,2.88h0a2.15,2.15,0,0,1-2.84-1.14l-4.54-10.57A2.19,2.19,0,0,1,160.34,10.88Z"/><path class="a" d="M27.43,1.87h0A2.18,2.18,0,0,1,29.89,0L41.14,1.73A2.18,2.18,0,0,1,43,4.21h0A2.17,2.17,0,0,1,40.5,6.05L29.25,4.35A2.19,2.19,0,0,1,27.43,1.87Z"/><path class="a" d="M322.12,6.15h0a2.17,2.17,0,0,1,2-2.3l11.37-.59a2.16,2.16,0,0,1,2.26,2.07h0a2.17,2.17,0,0,1-2,2.3l-11.37.59A2.16,2.16,0,0,1,322.12,6.15Z"/><path class="a" d="M231.11,126.93h0a2.18,2.18,0,0,1,0-3.08L239.4,116a2.17,2.17,0,0,1,3.07.09h0a2.19,2.19,0,0,1-.05,3.08L234.17,127A2.17,2.17,0,0,1,231.11,126.93Z"/></svg>