<?xml version="1.0" encoding="utf-8"?><svg xmlns="http://www.w3.org/2000/svg" viewBox="0 0 82.5 82.5">
  <defs>
    <style>
      .cls-1 {
        fill: #6c0080;
      }

      .cls-2 {
        fill: #9300a2;
      }

      .cls-3 {
        fill: #03ffcf;
      }

      .cls-4 {
        fill: #1d1d1b;
      }
    </style>
  </defs>
  <title>oval_icon</title>
  <g id="Vrstva_2" data-name="Vrstva 2">
    <g id="Vrstva_3" data-name="Vrstva 3">
      <g>
        <rect class="cls-1" width="82.5" height="82.5" rx="19.29"/>
        <rect class="cls-2" x="3.75" y="3.75" width="75" height="75" rx="16.37"/>
        <g>
          <rect class="cls-3" x="10.14" y="48.41" width="41.36" height="20.1" rx="10.05" transform="translate(-26.61 25.77) rotate(-32.55)"/>
          <path class="cls-4" d="M45.54,61.76,27.62,73.2a10.7,10.7,0,0,1-11.51-18L34,43.73a10.7,10.7,0,0,1,11.51,18ZM16.8,56.26A9.4,9.4,0,1,0,26.92,72.11L44.85,60.67A9.4,9.4,0,1,0,34.73,44.82Z"/>
        </g>
        <g>
          <rect class="cls-3" x="47.92" y="41.53" width="32.12" height="15.61" rx="7.81" transform="translate(10.48 109.88) rotate(-86.17)"/>
          <path class="cls-4" d="M72.83,41.65,71.72,58.13A8.3,8.3,0,0,1,55.15,57l1.1-16.48a8.31,8.31,0,0,1,16.58,1.11ZM56.15,57.09a7.3,7.3,0,1,0,14.57,1l1.11-16.47a7.31,7.31,0,1,0-14.58-1Z"/>
        </g>
        <g>
          <rect class="cls-3" x="44.13" y="23.47" width="16.27" height="7.91" rx="3.95" transform="translate(-1.05 52.75) rotate(-53.1)"/>
          <path class="cls-4" d="M58.14,26.61l-5,6.68a4.21,4.21,0,1,1-6.73-5.05l5-6.69a4.21,4.21,0,1,1,6.73,5.06ZM46.79,28.55A3.7,3.7,0,0,0,52.71,33l5-6.69a3.7,3.7,0,1,0-5.92-4.44Z"/>
        </g>
        <g>
          <rect class="cls-3" x="23.08" y="19.29" width="7.91" height="16.27" rx="3.95" transform="translate(-11.13 32.57) rotate(-53.1)"/>
          <path class="cls-4" d="M26.22,21.55l6.69,5a4.21,4.21,0,0,1-5.06,6.73l-6.69-5a4.21,4.21,0,0,1,5.06-6.73Zm1.94,11.34A3.7,3.7,0,1,0,32.6,27l-6.69-5a3.7,3.7,0,0,0-4.44,5.92Z"/>
        </g>
        <g>
          <rect class="cls-3" x="34.44" y="7.6" width="5.49" height="11.29" rx="2.74" transform="translate(-1.75 6.74) rotate(-10.12)"/>
          <path class="cls-4" d="M39.54,9.88l1,5.71a2.92,2.92,0,1,1-5.74,1l-1-5.72a2.91,2.91,0,1,1,5.74-1Zm-4.38,6.67a2.57,2.57,0,1,0,5.06-.9l-1-5.71a2.57,2.57,0,0,0-5.06.9Z"/>
        </g>
        <g>
          <rect class="cls-3" x="48.76" y="7.65" width="7.02" height="3.41" rx="1.71" transform="translate(14.28 46.46) rotate(-54.47)"/>
          <path class="cls-4" d="M54.79,8.94l-2.1,2.94a1.81,1.81,0,0,1-2.95-2.11l2.1-2.94a1.81,1.81,0,0,1,2.95,2.11Zm-4.87,1a1.6,1.6,0,0,0,2.6,1.85l2.09-2.93A1.6,1.6,0,0,0,52,7Z"/>
        </g>
      </g>
    </g>
  </g>
</svg>
